<svg version="1.1" xmlns="http://www.w3.org/2000/svg" viewBox="0 0 1031.5921769195738 897.343032537532" width="2063.1843538391477" height="1794.686065075064">
  <!-- svg-source:excalidraw -->
  
  <defs>
    <style class="style-fonts">
      @font-face {
        font-family: "Virgil";
        src: url("https://excalidash.opendefense.cloud//dist/excalidraw-assets/Virgil.woff2");
      }
      @font-face {
        font-family: "Cascadia";
        src: url("https://excalidash.opendefense.cloud//dist/excalidraw-assets/Cascadia.woff2");
      }
      @font-face {
        font-family: "Assistant";
        src: url("https://excalidash.opendefense.cloud//dist/excalidraw-assets/Assistant-Regular.woff2");
      }
    </style>
    
  </defs>
  <rect x="0" y="0" width="1031.5921769195738" height="897.343032537532" fill="#ffffff"></rect><g stroke-linecap="round" transform="translate(10 265.1644404912144) rotate(0 102.41765752325597 114)"><path d="M32 0 C77.12 0.97, 120 1.07, 172.84 0 M172.84 0 C195.67 0.03, 206.58 9.53, 204.84 32 M204.84 32 C205.25 84.21, 205.93 134.38, 204.84 196 M204.84 196 C205.47 218.57, 193.88 228.48, 172.84 228 M172.84 228 C125.5 226.82, 79.6 227.93, 32 228 M32 228 C11.79 227.9, -0.38 216.17, 0 196 M0 196 C3.08 160.4, 3.38 127.14, 0 32 M0 32 C-1.48 9.57, 10.02 -1.93, 32 0" stroke="#1e1e1e" stroke-width="2.5" fill="none" stroke-dasharray="8 10"></path></g><g stroke-linecap="round" transform="translate(475.93465941699003 51.16444049121441) rotate(0 272.82875875129196 189)"><path d="M32 0 C174.05 -0.4, 314.38 -0.16, 513.66 0 M513.66 0 C536.72 0.98, 545.18 9.21, 545.66 32 M545.66 32 C545.25 101.06, 544.94 170.81, 545.66 346 M545.66 346 C544.1 368.34, 536.9 376.22, 513.66 378 M513.66 378 C392.07 379.62, 270.04 379.82, 32 378 M32 378 C11.75 378.04, 1.06 367.72, 0 346 M0 346 C2.31 274.36, 2.11 204, 0 32 M0 32 C1.55 8.84, 9.57 -0.5, 32 0" stroke="#1e1e1e" stroke-width="2.5" fill="none" stroke-dasharray="8 10"></path></g><g stroke-linecap="round" transform="translate(525.93465941699 312.1644404912144) rotate(0 63 37.5)"><path d="M18.75 0 C43.24 -0.71, 65.67 0.2, 107.25 0 M18.75 0 C49.93 -0.4, 82.74 -1.02, 107.25 0 M107.25 0 C121.06 0.06, 127.85 5.33, 126 18.75 M107.25 0 C119.67 0.64, 125.32 5.41, 126 18.75 M126 18.75 C126.03 32.07, 126.7 46.44, 126 56.25 M126 18.75 C125.88 29.21, 125.14 37.86, 126 56.25 M126 56.25 C127.29 67.03, 118.54 74.82, 107.25 75 M126 56.25 C127.09 69.53, 118.85 76.65, 107.25 75 M107.25 75 C85.95 77.63, 66.26 74.34, 18.75 75 M107.25 75 C87.96 76.4, 68.92 75.72, 18.75 75 M18.75 75 C7.3 76.82, 1.39 69.33, 0 56.25 M18.75 75 C6.46 73.42, 2.16 67.58, 0 56.25 M0 56.25 C1.99 43.42, -1.42 30.92, 0 18.75 M0 56.25 C0.69 43.75, -0.49 31.57, 0 18.75 M0 18.75 C0.83 4.63, 5.51 1.62, 18.75 0 M0 18.75 C-0.25 4.03, 7.66 2.12, 18.75 0" stroke="#f08c00" stroke-width="1" fill="none"></path></g><g transform="translate(569.151326592283 337.1644404912144) rotate(0 19.78333282470703 12.5)"><text x="19.78333282470703" y="0" font-family="Virgil, Segoe UI Emoji" font-size="20px" fill="#f08c00" text-anchor="middle" style="white-space: pre;" direction="ltr" dominant-baseline="text-before-edge">ARC</text></g><g stroke-linecap="round" transform="translate(523.93465941699 103.6644404912144) rotate(0 63 37.5)"><path d="M18.75 0 C36.92 -1.2, 54.03 -0.57, 107.25 0 M18.75 0 C43.04 -0.7, 68.58 0.28, 107.25 0 M107.25 0 C120.61 -1.81, 125.63 6.41, 126 18.75 M107.25 0 C119.39 -0.31, 124.62 8.52, 126 18.75 M126 18.75 C124.97 35.45, 126.55 47.66, 126 56.25 M126 18.75 C126.35 28.83, 126.07 39.04, 126 56.25 M126 56.25 C126.1 68.13, 118.07 74.99, 107.25 75 M126 56.25 C127.56 70.92, 119.2 74.01, 107.25 75 M107.25 75 C80.14 73.78, 50.37 77.71, 18.75 75 M107.25 75 C82.43 74.59, 57.21 73.51, 18.75 75 M18.75 75 C5.44 76.68, 0.12 69.58, 0 56.25 M18.75 75 C4.81 73.59, -1.64 68.7, 0 56.25 M0 56.25 C-0.79 47.14, 0.1 42.75, 0 18.75 M0 56.25 C0.21 46.45, -0.06 38.15, 0 18.75 M0 18.75 C-0.32 5.77, 6.13 0.87, 18.75 0 M0 18.75 C-1.3 5.65, 8.54 -0.52, 18.75 0" stroke="#e03131" stroke-width="1" fill="none"></path></g><g transform="translate(561.7096590355203 128.6644404912144) rotate(0 25.225000381469727 12.5)"><text x="25.225000381469727" y="0" font-family="Virgil, Segoe UI Emoji" font-size="20px" fill="#e03131" text-anchor="middle" style="white-space: pre;" direction="ltr" dominant-baseline="text-before-edge">Solar</text></g><g stroke-linecap="round" transform="translate(522.93465941699 204.6644404912144) rotate(0 63 37.5)"><path d="M18.75 0 C49.99 -0.44, 81.07 0.56, 107.25 0 M18.75 0 C50.73 0.09, 81.07 -0.03, 107.25 0 M107.25 0 C118.66 1.76, 127.91 6.17, 126 18.75 M107.25 0 C121.79 0.48, 127.42 7.47, 126 18.75 M126 18.75 C127.06 27.38, 125.38 38.45, 126 56.25 M126 18.75 C125.97 28.71, 126.84 37.83, 126 56.25 M126 56.25 C124.12 70.28, 121.48 73.22, 107.25 75 M126 56.25 C127.27 70.6, 120.87 73.81, 107.25 75 M107.25 75 C87.18 73.65, 66.3 76.78, 18.75 75 M107.25 75 C78.35 75.07, 48.6 73.86, 18.75 75 M18.75 75 C4.31 76.98, 0.58 70.65, 0 56.25 M18.75 75 C4.62 74.86, 0.22 70.17, 0 56.25 M0 56.25 C0.68 49.31, -0.07 38.85, 0 18.75 M0 56.25 C0.14 45.6, -0.29 33.82, 0 18.75 M0 18.75 C0.61 8.21, 7.36 1, 18.75 0 M0 18.75 C0.89 5.43, 6.8 0.98, 18.75 0" stroke="#2f9e44" stroke-width="1" fill="none"></path></g><g transform="translate(546.276326592283 217.1644404912144) rotate(0 39.65833282470703 25)"><text x="39.65833282470703" y="0" font-family="Virgil, Segoe UI Emoji" font-size="20px" fill="#2f9e44" text-anchor="middle" style="white-space: pre;" direction="ltr" dominant-baseline="text-before-edge">Registry</text><text x="39.65833282470703" y="25" font-family="Virgil, Segoe UI Emoji" font-size="20px" fill="#2f9e44" text-anchor="middle" style="white-space: pre;" direction="ltr" dominant-baseline="text-before-edge">-source-</text></g><g stroke-linecap="round" transform="translate(849.93465941699 98.6644404912144) rotate(0 63 37.5)"><path d="M18.75 0 C55.46 -0.09, 89.36 1.11, 107.25 0 M18.75 0 C36.38 1.04, 53.98 1.06, 107.25 0 M107.25 0 C119.51 0.5, 125.6 4.62, 126 18.75 M107.25 0 C118.79 -2.06, 128.15 7.17, 126 18.75 M126 18.75 C124.7 28.62, 127.04 36.49, 126 56.25 M126 18.75 C127.25 30.4, 126.9 40.55, 126 56.25 M126 56.25 C125.08 67.12, 121.12 74.92, 107.25 75 M126 56.25 C126.97 70.06, 121.07 77.29, 107.25 75 M107.25 75 C75.72 75.35, 44.51 76.41, 18.75 75 M107.25 75 C79.36 76.19, 50.51 75.05, 18.75 75 M18.75 75 C5.4 74.05, -1.97 68.52, 0 56.25 M18.75 75 C7.56 75.1, 2 68.48, 0 56.25 M0 56.25 C-0.17 43.69, 0.66 30.02, 0 18.75 M0 56.25 C-0.78 44.05, 0.7 30.97, 0 18.75 M0 18.75 C1.46 4.93, 6.37 0.97, 18.75 0 M0 18.75 C-1.45 6.11, 8.08 -0.44, 18.75 0" stroke="#1971c2" stroke-width="1" fill="none"></path></g><g transform="translate(877.3263258293435 111.1644404912144) rotate(0 35.608333587646484 25)"><text x="35.608333587646484" y="0" font-family="Virgil, Segoe UI Emoji" font-size="20px" fill="#1971c2" text-anchor="middle" style="white-space: pre;" direction="ltr" dominant-baseline="text-before-edge">Target</text><text x="35.608333587646484" y="25" font-family="Virgil, Segoe UI Emoji" font-size="20px" fill="#1971c2" text-anchor="middle" style="white-space: pre;" direction="ltr" dominant-baseline="text-before-edge">Cluster</text></g><g stroke-linecap="round" transform="translate(849.93465941699 230.6644404912144) rotate(0 63 37.5)"><path d="M18.75 0 C47.43 -1.38, 78.63 -1.67, 107.25 0 M18.75 0 C36.65 0.36, 54.34 -0.21, 107.25 0 M107.25 0 C121.17 -1.68, 126.1 6.05, 126 18.75 M107.25 0 C120.81 -1.74, 126.83 7.25, 126 18.75 M126 18.75 C127.5 32.95, 127.23 46.12, 126 56.25 M126 18.75 C126.12 31.02, 125.99 41.98, 126 56.25 M126 56.25 C127.12 68.25, 119.36 73.67, 107.25 75 M126 56.25 C124.04 67.63, 121.98 73.47, 107.25 75 M107.25 75 C87.26 75.38, 66.07 74.88, 18.75 75 M107.25 75 C81.41 75.58, 56.86 74.22, 18.75 75 M18.75 75 C6.39 75.54, -0.95 69.64, 0 56.25 M18.75 75 C4.73 76.27, 0.4 69.07, 0 56.25 M0 56.25 C0.43 48.7, 0.97 41.36, 0 18.75 M0 56.25 C0.02 44.3, 0.18 32.56, 0 18.75 M0 18.75 C0.66 5.8, 4.51 1.96, 18.75 0 M0 18.75 C-1.79 7.13, 5.96 1.61, 18.75 0" stroke="#1971c2" stroke-width="1" fill="none"></path></g><g transform="translate(877.3263258293435 243.1644404912144) rotate(0 35.608333587646484 25)"><text x="35.608333587646484" y="0" font-family="Virgil, Segoe UI Emoji" font-size="20px" fill="#1971c2" text-anchor="middle" style="white-space: pre;" direction="ltr" dominant-baseline="text-before-edge">Target</text><text x="35.608333587646484" y="25" font-family="Virgil, Segoe UI Emoji" font-size="20px" fill="#1971c2" text-anchor="middle" style="white-space: pre;" direction="ltr" dominant-baseline="text-before-edge">Cluster</text></g><g stroke-linecap="round" transform="translate(269.30847870994774 356.20937880174324) rotate(0 53 50.49999999999997)"><path d="M67.5 12.75 C75.1 19.8, 82.07 27.76, 92.5 38.25 M67.5 12.75 C73.05 20.17, 80.21 26.03, 92.5 38.25 M92.5 38.25 C104.88 52.19, 106.53 52.97, 92.5 63.75 M92.5 38.25 C107.48 52.63, 104.91 50.56, 92.5 63.75 M92.5 63.75 C88.12 69.09, 80.47 74.98, 67.5 88.25 M92.5 63.75 C87.83 69.85, 81.75 73.56, 67.5 88.25 M67.5 88.25 C55.51 101.75, 54.73 102.85, 40.5 88.25 M67.5 88.25 C52.04 100.97, 56.2 99.78, 40.5 88.25 M40.5 88.25 C32.58 81.12, 25.27 71.49, 13.5 63.75 M40.5 88.25 C30.83 79.18, 21.61 70.65, 13.5 63.75 M13.5 63.75 C1.64 51.21, -0.73 49.08, 13.5 38.25 M13.5 63.75 C1.8 50.32, -1.49 52.29, 13.5 38.25 M13.5 38.25 C21.03 29.98, 26.83 23.34, 40.5 12.75 M13.5 38.25 C21.57 29.32, 30.5 21.92, 40.5 12.75 M40.5 12.75 C52.36 -0.18, 53.75 -0.56, 67.5 12.75 M40.5 12.75 C51.86 0.16, 52.57 1.56, 67.5 12.75" stroke="#1e1e1e" stroke-width="1" fill="none"></path></g><g transform="translate(300.95014512230125 394.45937880174324) rotate(0 21.358333587646484 12.499999999999972)"><text x="21.358333587646484" y="0" font-family="Virgil, Segoe UI Emoji" font-size="20px" fill="#1e1e1e" text-anchor="middle" style="white-space: pre;" direction="ltr" dominant-baseline="text-before-edge">OCM</text></g><g stroke-linecap="round"><g transform="translate(374.43465941699003 29.414440491214407) rotate(0 -4.001700189373366 427.9846982956394)"><path d="M-2.38 -0.63 C-3.63 141.89, -6.31 714.81, -6.9 857.14 M1.53 -3.44 C-0.05 138.04, -7.19 709.69, -8.54 852.76" stroke="#1e1e1e" stroke-width="1" fill="none"></path></g></g><mask></mask><g stroke-linecap="round" transform="translate(679.4689076667318 98.8801922414728) rotate(0 63 38.27398599793281)"><path d="M19.14 0 C45.4 0.09, 68.72 2.29, 106.86 0 M19.14 0 C43.54 0.13, 68.05 0.99, 106.86 0 M106.86 0 C120.62 1.44, 127.22 6.88, 126 19.14 M106.86 0 C118.99 -0.96, 123.91 6.29, 126 19.14 M126 19.14 C125.16 33.35, 124.36 49.33, 126 57.41 M126 19.14 C125.25 33.77, 126.52 46.79, 126 57.41 M126 57.41 C125.39 69.45, 121.23 77.42, 106.86 76.55 M126 57.41 C125.23 70.51, 120.45 74.91, 106.86 76.55 M106.86 76.55 C87.08 78.06, 73.13 76.41, 19.14 76.55 M106.86 76.55 C87.94 76.79, 68.58 78.15, 19.14 76.55 M19.14 76.55 C6.16 78.18, 1.38 72.01, 0 57.41 M19.14 76.55 C4.9 75.95, -1.75 69.24, 0 57.41 M0 57.41 C-1.24 49.47, 1.36 43.29, 0 19.14 M0 57.41 C-0.26 46.88, -0.23 35.76, 0 19.14 M0 19.14 C-0.4 7.33, 6.43 0.51, 19.14 0 M0 19.14 C0.92 4.99, 6.35 1.41, 19.14 0" stroke="#2f9e44" stroke-width="1" fill="none"></path></g><g transform="translate(702.9439061408528 112.15417823940561) rotate(0 39.525001525878906 25)"><text x="39.525001525878906" y="0" font-family="Virgil, Segoe UI Emoji" font-size="20px" fill="#2f9e44" text-anchor="middle" style="white-space: pre;" direction="ltr" dominant-baseline="text-before-edge">Registry</text><text x="39.525001525878906" y="25" font-family="Virgil, Segoe UI Emoji" font-size="20px" fill="#2f9e44" text-anchor="middle" style="white-space: pre;" direction="ltr" dominant-baseline="text-before-edge">-render-</text></g><g transform="translate(904.43465941699 185.4144404912144) rotate(0 8.199999809265137 12.5)"><text x="0" y="0" font-family="Virgil, Segoe UI Emoji" font-size="20px" fill="#1971c2" text-anchor="start" style="white-space: pre;" direction="ltr" dominant-baseline="text-before-edge">...</text></g><g stroke-linecap="round" transform="translate(43.537404166214856 391.589204349806) rotate(0 63 37.50000000000003)"><path d="M18.75 0 C41.71 0.06, 67.55 -2.36, 107.25 0 M18.75 0 C45.12 0.76, 71.48 0.16, 107.25 0 M107.25 0 C120.94 0.72, 124.62 7.23, 126 18.75 M107.25 0 C117.53 -0.47, 123.91 4.54, 126 18.75 M126 18.75 C126.75 33.7, 124 49.03, 126 56.25 M126 18.75 C127.07 28.63, 125.44 40.02, 126 56.25 M126 56.25 C125.99 67.38, 118.06 75.28, 107.25 75 M126 56.25 C127.37 70.29, 118.85 75.05, 107.25 75 M107.25 75 C72.31 75.91, 37.99 75.96, 18.75 75 M107.25 75 C75.74 74.74, 43.04 75.5, 18.75 75 M18.75 75 C8.09 75.42, 1.77 67.59, 0 56.25 M18.75 75 C6.61 73.07, 0.94 67.01, 0 56.25 M0 56.25 C1.12 46.32, 2.24 33.02, 0 18.75 M0 56.25 C-0.45 42.03, -0.89 26.53, 0 18.75 M0 18.75 C-1.74 7.59, 5.14 0.26, 18.75 0 M0 18.75 C1.43 4.95, 4.36 -0.81, 18.75 0" stroke="#2f9e44" stroke-width="1" fill="none"></path></g><g transform="translate(67.01240264033595 404.089204349806) rotate(0 39.525001525878906 25.00000000000003)"><text x="39.525001525878906" y="0" font-family="Virgil, Segoe UI Emoji" font-size="20px" fill="#2f9e44" text-anchor="middle" style="white-space: pre;" direction="ltr" dominant-baseline="text-before-edge">OCI</text><text x="39.525001525878906" y="25" font-family="Virgil, Segoe UI Emoji" font-size="20px" fill="#2f9e44" text-anchor="middle" style="white-space: pre;" direction="ltr" dominant-baseline="text-before-edge">Registry</text></g><g stroke-linecap="round" transform="translate(45.32875875129196 292.75) rotate(0 63 37.5)"><path d="M18.75 0 C45.13 0.35, 69.91 -0.34, 107.25 0 M18.75 0 C49.41 1.06, 80.73 1.24, 107.25 0 M107.25 0 C121.71 1.57, 124.74 8.02, 126 18.75 M107.25 0 C121.59 -1.82, 124.59 4.62, 126 18.75 M126 18.75 C124.89 32.59, 127.45 40.95, 126 56.25 M126 18.75 C126.1 29.93, 125.05 41.53, 126 56.25 M126 56.25 C127.31 70.34, 118.17 76.36, 107.25 75 M126 56.25 C124.7 68.19, 120.51 74.43, 107.25 75 M107.25 75 C89.33 75.69, 67.62 75.33, 18.75 75 M107.25 75 C73.23 74.23, 38.01 75.44, 18.75 75 M18.75 75 C5.35 73.05, -1.98 69.97, 0 56.25 M18.75 75 C8.11 73.48, -1.63 68.06, 0 56.25 M0 56.25 C1.87 42.4, -0.8 31.82, 0 18.75 M0 56.25 C-0.88 46.08, -0.39 35.78, 0 18.75 M0 18.75 C1.29 5.09, 6.94 0.74, 18.75 0 M0 18.75 C-0.19 5.3, 5.06 2, 18.75 0" stroke="#e03131" stroke-width="1" fill="none"></path></g><g transform="translate(83.10375836982223 317.75) rotate(0 25.225000381469727 12.5)"><text x="25.225000381469727" y="0" font-family="Virgil, Segoe UI Emoji" font-size="20px" fill="#e03131" text-anchor="middle" style="white-space: pre;" direction="ltr" dominant-baseline="text-before-edge">Solar</text></g><g stroke-linecap="round"><g transform="translate(842.3319146677651 234.3825167638949) rotate(0 -15.941676726002584 -26.65016603954433)"><path d="M-0.29 0.65 C-5.64 -8.18, -25.86 -43.67, -31.21 -52.61" stroke="#868e96" stroke-width="2.5" fill="none" stroke-dasharray="8 10"></path></g><g transform="translate(842.3319146677651 234.3825167638949) rotate(0 -15.941676726002584 -26.65016603954433)"><path d="M-8.15 -33.42 C-15.79 -39.56, -24.37 -48.74, -31.21 -52.61" stroke="#868e96" stroke-width="2.5" fill="none"></path></g><g transform="translate(842.3319146677651 234.3825167638949) rotate(0 -15.941676726002584 -26.65016603954433)"><path d="M-25.88 -23.08 C-26.89 -33.06, -28.81 -46.13, -31.21 -52.61" stroke="#868e96" stroke-width="2.5" fill="none"></path></g></g><mask></mask><g stroke-linecap="round"><g transform="translate(840.43465941699 134.81173906575023) rotate(0 -14.982875875129139 0.3881336383586955)"><path d="M0.11 0.12 C-5 0.31, -25.43 1.17, -30.47 1.27" stroke="#868e96" stroke-width="2.5" fill="none" stroke-dasharray="8 10"></path></g><g transform="translate(840.43465941699 134.81173906575023) rotate(0 -14.982875875129139 0.3881336383586955)"><path d="M-16.56 -4.32 C-21.01 -3.13, -25.13 -0.77, -30.47 1.27" stroke="#868e96" stroke-width="2.5" fill="none"></path></g><g transform="translate(840.43465941699 134.81173906575023) rotate(0 -14.982875875129139 0.3881336383586955)"><path d="M-16.22 5.93 C-20.8 3.71, -25.03 2.66, -30.47 1.27" stroke="#868e96" stroke-width="2.5" fill="none"></path></g></g><mask></mask><g stroke-linecap="round"><g transform="translate(657.43465941699 136.8279221261963) rotate(0 9.517124124870861 0.44938183208077476)"><path d="M0.42 0.01 C3.73 0.16, 16.39 0.92, 19.42 0.99 M-0.03 -0.45 C3.27 -0.49, 15.89 -0.13, 19.19 0.08" stroke="#868e96" stroke-width="2" fill="none"></path></g><g transform="translate(657.43465941699 136.8279221261963) rotate(0 9.517124124870861 0.44938183208077476)"><path d="M10.11 2.95 C12.12 2.62, 14.19 1.3, 19.19 0.08 M10.11 2.95 C12.25 2.39, 13.79 1.58, 19.19 0.08" stroke="#868e96" stroke-width="2" fill="none"></path></g><g transform="translate(657.43465941699 136.8279221261963) rotate(0 9.517124124870861 0.44938183208077476)"><path d="M10.38 -3.56 C12.34 -2.46, 14.35 -2.34, 19.19 0.08 M10.38 -3.56 C12.44 -2.73, 13.92 -2.14, 19.19 0.08" stroke="#868e96" stroke-width="2" fill="none"></path></g></g><mask></mask><g stroke-linecap="round"><g transform="translate(586.43465941699 182.4144404912144) rotate(0 0 9)"><path d="M-0.3 -0.21 C-0.32 2.91, -0.33 15.25, -0.27 18.28 M0.54 -0.79 C0.72 2.2, 0.96 14.24, 0.82 17.46" stroke="#868e96" stroke-width="2" fill="none"></path></g></g><mask></mask><g stroke-linecap="round"><g transform="translate(587.43465941699 306.4144404912144) rotate(0 -0.5 -11)"><path d="M0.52 0 C0.29 -3.73, -0.71 -18.23, -0.89 -21.97 M0.13 -0.48 C-0.21 -4.15, -1.13 -17.66, -1.27 -21.25" stroke="#868e96" stroke-width="2" fill="none"></path></g><g transform="translate(587.43465941699 306.4144404912144) rotate(0 -0.5 -11)"><path d="M3.07 -11.13 C1.34 -14.95, -0.32 -18.57, -1.27 -21.25 M3.07 -11.13 C2.02 -13.09, 1.04 -15.48, -1.27 -21.25" stroke="#868e96" stroke-width="2" fill="none"></path></g><g transform="translate(587.43465941699 306.4144404912144) rotate(0 -0.5 -11)"><path d="M-4.45 -10.71 C-3.25 -14.73, -1.98 -18.52, -1.27 -21.25 M-4.45 -10.71 C-3.83 -12.77, -3.15 -15.26, -1.27 -21.25" stroke="#868e96" stroke-width="2" fill="none"></path></g></g><mask></mask><g stroke-linecap="round"><g transform="translate(839.688243142442 266.54438827041366) rotate(0 -89.97959772751915 -13.445227246640798)"><path d="M1.15 -0.64 C-28.63 -4.9, -149.02 -21.77, -179.12 -26" stroke="#868e96" stroke-width="2.5" fill="none" stroke-dasharray="8 10"></path></g><g transform="translate(839.688243142442 266.54438827041366) rotate(0 -89.97959772751915 -13.445227246640798)"><path d="M-149.77 -32.24 C-158.62 -28.91, -163.84 -27.73, -179.12 -26" stroke="#868e96" stroke-width="2.5" fill="none"></path></g><g transform="translate(839.688243142442 266.54438827041366) rotate(0 -89.97959772751915 -13.445227246640798)"><path d="M-152.63 -11.92 C-160.65 -13.98, -165.1 -18.19, -179.12 -26" stroke="#868e96" stroke-width="2.5" fill="none"></path></g></g><mask></mask><g stroke-linecap="round"><g transform="translate(839.688243142442 160.01681854702883) rotate(0 -89.4624736026484 33.61306811660202)"><path d="M-0.26 1.01 C-29.95 12.37, -148.39 56.32, -178.19 67.24" stroke="#868e96" stroke-width="2.5" fill="none" stroke-dasharray="8 10"></path></g><g transform="translate(839.688243142442 160.01681854702883) rotate(0 -89.4624736026484 33.61306811660202)"><path d="M-155.3 47.85 C-160.57 54.81, -169.05 59.14, -178.19 67.24" stroke="#868e96" stroke-width="2.5" fill="none"></path></g><g transform="translate(839.688243142442 160.01681854702883) rotate(0 -89.4624736026484 33.61306811660202)"><path d="M-148.19 67.1 C-155.44 68.31, -166.04 66.9, -178.19 67.24" stroke="#868e96" stroke-width="2.5" fill="none"></path></g></g><mask></mask><g stroke-linecap="round"><g transform="translate(181.3892321819137 310.49993888443163) rotate(0 167.54821645813928 -82.99842204176336)"><path d="M0 0 C55.85 -27.67, 279.25 -138.33, 335.1 -166" stroke="#868e96" stroke-width="2.5" fill="none" stroke-dasharray="1.5 8"></path></g></g><mask></mask><g transform="translate(281.71131240684906 199.83537616208048) rotate(0 20.450000762939453 12.5)"><text x="0" y="0" font-family="Virgil, Segoe UI Emoji" font-size="20px" fill="#868e96" text-anchor="start" style="white-space: pre;" direction="ltr" dominant-baseline="text-before-edge">Sync</text></g><g stroke-linecap="round" transform="translate(464.9860317916026 509.3430325375321) rotate(0 272.82875875129196 189)"><path d="M32 0 C152.47 -1.92, 271.94 -0.63, 513.66 0 M513.66 0 C533.17 1.62, 546.22 9.35, 545.66 32 M545.66 32 C547.33 144.39, 546.59 258.16, 545.66 346 M545.66 346 C546.08 368.93, 533.88 378.98, 513.66 378 M513.66 378 C364.32 375.54, 215.98 375.61, 32 378 M32 378 C11.29 377.47, 1.36 368.21, 0 346 M0 346 C0.84 220.44, 1.25 96.54, 0 32 M0 32 C0.64 10.55, 12.61 1.81, 32 0" stroke="#868e96" stroke-width="2.5" fill="none" stroke-dasharray="8 10"></path></g><g stroke-linecap="round" transform="translate(514.9860317916026 770.343032537532) rotate(0 63 37.5)"><path d="M18.75 0 C50.32 2.25, 81.58 2.19, 107.25 0 M18.75 0 C48.6 -0.17, 76.69 -0.55, 107.25 0 M107.25 0 C118.48 1.8, 126.42 7.84, 126 18.75 M107.25 0 C118.47 1.13, 126.2 4.21, 126 18.75 M126 18.75 C124.51 25.4, 126.3 33.95, 126 56.25 M126 18.75 C125.38 32.87, 125.52 45.89, 126 56.25 M126 56.25 C125.3 69.31, 120.39 74.88, 107.25 75 M126 56.25 C128.24 70.83, 120.95 73.82, 107.25 75 M107.25 75 C86.37 75.45, 69.44 76.29, 18.75 75 M107.25 75 C73.1 75.39, 39.83 74.72, 18.75 75 M18.75 75 C5.6 74.82, 1.12 68.96, 0 56.25 M18.75 75 C6.41 72.87, -1.26 70.84, 0 56.25 M0 56.25 C0.14 41.94, -1.06 28.21, 0 18.75 M0 56.25 C0.35 46.11, -0.55 33.38, 0 18.75 M0 18.75 C-0.76 6.3, 7.69 0.51, 18.75 0 M0 18.75 C2.17 8.35, 6.97 0.94, 18.75 0" stroke="#868e96" stroke-width="1" fill="none"></path></g><g transform="translate(558.2026989668956 795.343032537532) rotate(0 19.78333282470703 12.5)"><text x="19.78333282470703" y="0" font-family="Virgil, Segoe UI Emoji" font-size="20px" fill="#868e96" text-anchor="middle" style="white-space: pre;" direction="ltr" dominant-baseline="text-before-edge">ARC</text></g><g stroke-linecap="round" transform="translate(512.9860317916026 561.843032537532) rotate(0 63 37.5)"><path d="M18.75 0 C53.24 -2.03, 87.77 0.93, 107.25 0 M18.75 0 C47.73 0.94, 78.2 0.83, 107.25 0 M107.25 0 C118.64 0.98, 126.17 4.48, 126 18.75 M107.25 0 C117.67 -1.99, 124.43 4.91, 126 18.75 M126 18.75 C127.47 28.61, 128.07 35.14, 126 56.25 M126 18.75 C125.41 31.51, 126.08 43.66, 126 56.25 M126 56.25 C127.95 70.56, 120.79 73.98, 107.25 75 M126 56.25 C124.02 66.56, 120.17 72.76, 107.25 75 M107.25 75 C81.15 75.51, 50.86 75.41, 18.75 75 M107.25 75 C73.86 74.97, 41.68 75.16, 18.75 75 M18.75 75 C6.39 73.15, -1.09 70.57, 0 56.25 M18.75 75 C7.47 75.94, -0.89 69.09, 0 56.25 M0 56.25 C0.04 47.65, -0.62 38.72, 0 18.75 M0 56.25 C-0.22 41.74, 0.88 27.45, 0 18.75 M0 18.75 C1.88 8.08, 6.88 0.82, 18.75 0 M0 18.75 C1.69 5.21, 6.07 1.4, 18.75 0" stroke="#868e96" stroke-width="1" fill="none"></path></g><g transform="translate(550.7693646163096 586.843032537532) rotate(0 25.21666717529297 12.5)"><text x="25.21666717529297" y="0" font-family="Virgil, Segoe UI Emoji" font-size="20px" fill="#868e96" text-anchor="middle" style="white-space: pre;" direction="ltr" dominant-baseline="text-before-edge">Solar</text></g><g stroke-linecap="round" transform="translate(511.9860317916026 662.843032537532) rotate(0 63 37.5)"><path d="M18.75 0 C40.17 -0.95, 60.13 -2, 107.25 0 M18.75 0 C52.72 -0.21, 87.9 -1.59, 107.25 0 M107.25 0 C117.94 -1.73, 124.63 5.09, 126 18.75 M107.25 0 C118.36 0.72, 125.4 7.81, 126 18.75 M126 18.75 C127.02 30.36, 125.48 43.84, 126 56.25 M126 18.75 C127.09 31.95, 126.64 42.83, 126 56.25 M126 56.25 C124.28 66.84, 120.12 73.05, 107.25 75 M126 56.25 C126.33 68.8, 121.05 76.96, 107.25 75 M107.25 75 C82.13 76.53, 54.19 74.31, 18.75 75 M107.25 75 C81.58 74.17, 55.22 76, 18.75 75 M18.75 75 C7.31 75.82, -0.78 69.04, 0 56.25 M18.75 75 C5.01 73.96, -1.81 68.6, 0 56.25 M0 56.25 C1.9 42.95, -1.54 30.62, 0 18.75 M0 56.25 C0.67 45.83, 0.04 33.99, 0 18.75 M0 18.75 C1.47 5.35, 6.09 1.22, 18.75 0 M0 18.75 C-1.53 7.16, 6.57 -1.6, 18.75 0" stroke="#868e96" stroke-width="1" fill="none"></path></g><g transform="translate(535.3193638533702 675.343032537532) rotate(0 39.66666793823242 25)"><text x="39.66666793823242" y="0" font-family="Virgil, Segoe UI Emoji" font-size="20px" fill="#868e96" text-anchor="middle" style="white-space: pre;" direction="ltr" dominant-baseline="text-before-edge">Registry</text><text x="39.66666793823242" y="25" font-family="Virgil, Segoe UI Emoji" font-size="20px" fill="#868e96" text-anchor="middle" style="white-space: pre;" direction="ltr" dominant-baseline="text-before-edge">-source-</text></g><g stroke-linecap="round" transform="translate(838.9860317916026 556.843032537532) rotate(0 63 37.5)"><path d="M18.75 0 C46.1 0.98, 71.44 -0.55, 107.25 0 M18.75 0 C48.75 -0.08, 79.87 0.2, 107.25 0 M107.25 0 C118.54 0.62, 125.47 7.61, 126 18.75 M107.25 0 C120.76 2.25, 124.2 7.01, 126 18.75 M126 18.75 C126.39 28.24, 125.72 38.39, 126 56.25 M126 18.75 C125.33 32.44, 126.38 47.05, 126 56.25 M126 56.25 C126.28 68.8, 120.88 76.71, 107.25 75 M126 56.25 C126.01 67.86, 119.65 76.69, 107.25 75 M107.25 75 C73.59 75.83, 40.5 74.85, 18.75 75 M107.25 75 C89.41 76.21, 70.13 75.95, 18.75 75 M18.75 75 C5.17 74.1, -1.57 68.62, 0 56.25 M18.75 75 C6.98 74.09, 1.08 70.76, 0 56.25 M0 56.25 C0.36 48.07, 0.82 38.89, 0 18.75 M0 56.25 C0.62 41.12, -0.2 27.5, 0 18.75 M0 18.75 C-1.33 7.04, 6.53 -1.39, 18.75 0 M0 18.75 C-2.04 7.15, 7.64 0.97, 18.75 0" stroke="#868e96" stroke-width="1" fill="none"></path></g><g transform="translate(866.3860333174815 569.343032537532) rotate(0 35.599998474121094 25)"><text x="35.599998474121094" y="0" font-family="Virgil, Segoe UI Emoji" font-size="20px" fill="#868e96" text-anchor="middle" style="white-space: pre;" direction="ltr" dominant-baseline="text-before-edge">Target</text><text x="35.599998474121094" y="25" font-family="Virgil, Segoe UI Emoji" font-size="20px" fill="#868e96" text-anchor="middle" style="white-space: pre;" direction="ltr" dominant-baseline="text-before-edge">Cluster</text></g><g stroke-linecap="round" transform="translate(838.9860317916026 688.843032537532) rotate(0 63 37.5)"><path d="M18.75 0 C48.14 0.66, 73.8 -1.31, 107.25 0 M18.75 0 C37.02 0.83, 56.25 1.19, 107.25 0 M107.25 0 C120.63 1.96, 124.43 6.91, 126 18.75 M107.25 0 C118.28 -1.02, 125.2 6.89, 126 18.75 M126 18.75 C127.79 32.25, 124.95 41.95, 126 56.25 M126 18.75 C126.21 26.45, 126.63 34.96, 126 56.25 M126 56.25 C126.01 67.97, 119.66 76.47, 107.25 75 M126 56.25 C127.8 68.9, 119 74.79, 107.25 75 M107.25 75 C73.89 73.97, 46.06 76.12, 18.75 75 M107.25 75 C76.55 74.68, 46.14 75.07, 18.75 75 M18.75 75 C6.88 74.21, 0.94 70.5, 0 56.25 M18.75 75 C5.25 73.06, -0.87 68.8, 0 56.25 M0 56.25 C1.73 42.93, 0.72 29.83, 0 18.75 M0 56.25 C-0.63 47.09, 0.17 36.44, 0 18.75 M0 18.75 C-1.77 7.03, 7.46 0.84, 18.75 0 M0 18.75 C1.06 8.42, 6.2 -1.5, 18.75 0" stroke="#868e96" stroke-width="1" fill="none"></path></g><g transform="translate(866.3860333174815 701.343032537532) rotate(0 35.599998474121094 25)"><text x="35.599998474121094" y="0" font-family="Virgil, Segoe UI Emoji" font-size="20px" fill="#868e96" text-anchor="middle" style="white-space: pre;" direction="ltr" dominant-baseline="text-before-edge">Target</text><text x="35.599998474121094" y="25" font-family="Virgil, Segoe UI Emoji" font-size="20px" fill="#868e96" text-anchor="middle" style="white-space: pre;" direction="ltr" dominant-baseline="text-before-edge">Cluster</text></g><g stroke-linecap="round" transform="translate(668.5202800413443 557.0587842877906) rotate(0 63 38.27398599793281)"><path d="M19.14 0 C44.47 -0.58, 72.1 -0.42, 106.86 0 M19.14 0 C48.62 0.38, 76.45 -0.27, 106.86 0 M106.86 0 C118.34 -0.88, 125.3 6.94, 126 19.14 M106.86 0 C120.36 -0.13, 128.24 8.46, 126 19.14 M126 19.14 C123.9 32.98, 123.86 46.38, 126 57.41 M126 19.14 C126.22 30.32, 126.17 43.01, 126 57.41 M126 57.41 C127.57 70.3, 118.97 76.37, 106.86 76.55 M126 57.41 C127.29 70.4, 119.78 74.42, 106.86 76.55 M106.86 76.55 C86.15 76.24, 64.11 75.94, 19.14 76.55 M106.86 76.55 C84.83 76.1, 62.63 77.37, 19.14 76.55 M19.14 76.55 C5.51 74.86, -0.76 70.21, 0 57.41 M19.14 76.55 C8.03 77.13, 2.17 72.27, 0 57.41 M0 57.41 C-1.06 44.57, 1.06 30.72, 0 19.14 M0 57.41 C-0.94 44.81, 0.55 31.85, 0 19.14 M0 19.14 C0.93 8.27, 6.33 -1.3, 19.14 0 M0 19.14 C-0.43 6.22, 6.27 2.18, 19.14 0" stroke="#868e96" stroke-width="1" fill="none"></path></g><g transform="translate(692.0036136289908 570.3327702857234) rotate(0 39.516666412353516 25)"><text x="39.516666412353516" y="0" font-family="Virgil, Segoe UI Emoji" font-size="20px" fill="#868e96" text-anchor="middle" style="white-space: pre;" direction="ltr" dominant-baseline="text-before-edge">Registry</text><text x="39.516666412353516" y="25" font-family="Virgil, Segoe UI Emoji" font-size="20px" fill="#868e96" text-anchor="middle" style="white-space: pre;" direction="ltr" dominant-baseline="text-before-edge">-render-</text></g><g transform="translate(893.4860317916026 643.593032537532) rotate(0 8.199999809265137 12.5)"><text x="0" y="0" font-family="Virgil, Segoe UI Emoji" font-size="20px" fill="#868e96" text-anchor="start" style="white-space: pre;" direction="ltr" dominant-baseline="text-before-edge">...</text></g><g stroke-linecap="round"><g transform="translate(831.3832870423779 692.5611088102125) rotate(0 -15.941676726002584 -26.65016603954433)"><path d="M-0.32 0.81 C-5.42 -7.94, -25.94 -43.17, -31.36 -52.13" stroke="#868e96" stroke-width="2.5" fill="none" stroke-dasharray="8 10"></path></g><g transform="translate(831.3832870423779 692.5611088102125) rotate(0 -15.941676726002584 -26.65016603954433)"><path d="M-8.17 -33.1 C-12.42 -36.84, -17.37 -43.84, -31.36 -52.13" stroke="#868e96" stroke-width="2.5" fill="none"></path></g><g transform="translate(831.3832870423779 692.5611088102125) rotate(0 -15.941676726002584 -26.65016603954433)"><path d="M-25.82 -22.64 C-25.88 -28.84, -26.61 -38.34, -31.36 -52.13" stroke="#868e96" stroke-width="2.5" fill="none"></path></g></g><mask></mask><g stroke-linecap="round"><g transform="translate(829.4860317916026 592.9903311120679) rotate(0 -14.982875875129139 0.3881336383586813)"><path d="M0.24 0.54 C-4.8 0.64, -25.3 0.96, -30.4 0.96" stroke="#868e96" stroke-width="2.5" fill="none" stroke-dasharray="8 10"></path></g><g transform="translate(829.4860317916026 592.9903311120679) rotate(0 -14.982875875129139 0.3881336383586813)"><path d="M-16.36 -4.3 C-19.45 -3.41, -23.78 -1.87, -30.4 0.96" stroke="#868e96" stroke-width="2.5" fill="none"></path></g><g transform="translate(829.4860317916026 592.9903311120679) rotate(0 -14.982875875129139 0.3881336383586813)"><path d="M-16.27 5.96 C-19.42 4.03, -23.77 2.77, -30.4 0.96" stroke="#868e96" stroke-width="2.5" fill="none"></path></g></g><mask></mask><g stroke-linecap="round"><g transform="translate(646.4860317916026 595.006514172514) rotate(0 9.517124124870861 0.44938183208074634)"><path d="M-0.43 0.18 C2.64 0.2, 15.47 0.51, 18.68 0.66 M0.35 -0.2 C3.58 0.12, 16.73 0.91, 19.73 1.23" stroke="#868e96" stroke-width="2" fill="none"></path></g><g transform="translate(646.4860317916026 595.006514172514) rotate(0 9.517124124870861 0.44938183208074634)"><path d="M10.55 3.77 C13.85 2.63, 16.64 1.89, 19.73 1.23 M10.55 3.77 C13.79 3.15, 16.69 1.98, 19.73 1.23" stroke="#868e96" stroke-width="2" fill="none"></path></g><g transform="translate(646.4860317916026 595.006514172514) rotate(0 9.517124124870861 0.44938183208074634)"><path d="M11.07 -2.73 C14.22 -1.64, 16.84 -0.14, 19.73 1.23 M11.07 -2.73 C14.15 -1.21, 16.88 -0.25, 19.73 1.23" stroke="#868e96" stroke-width="2" fill="none"></path></g></g><mask></mask><g stroke-linecap="round"><g transform="translate(575.4860317916026 640.593032537532) rotate(0 0 9)"><path d="M-0.35 -0.24 C-0.31 2.75, -0.28 15.12, -0.19 18.15 M0.47 0.82 C0.46 3.63, -0.63 14.31, -0.72 17.27" stroke="#868e96" stroke-width="2" fill="none"></path></g></g><mask></mask><g stroke-linecap="round"><g transform="translate(576.4860317916026 764.593032537532) rotate(0 -0.5 -11)"><path d="M-0.19 0.15 C-0.27 -3.48, -0.78 -18.42, -0.82 -22.03 M0.71 -0.24 C0.61 -3.76, -0.95 -17.67, -1.16 -21.35" stroke="#868e96" stroke-width="2" fill="none"></path></g><g transform="translate(576.4860317916026 764.593032537532) rotate(0 -0.5 -11)"><path d="M3.48 -11.36 C2.56 -13.55, 1.28 -15.55, -1.16 -21.35 M3.48 -11.36 C1.4 -15.54, -0.12 -19.44, -1.16 -21.35" stroke="#868e96" stroke-width="2" fill="none"></path></g><g transform="translate(576.4860317916026 764.593032537532) rotate(0 -0.5 -11)"><path d="M-4.02 -10.72 C-3.17 -13.04, -2.68 -15.19, -1.16 -21.35 M-4.02 -10.72 C-3.17 -15.12, -1.77 -19.28, -1.16 -21.35" stroke="#868e96" stroke-width="2" fill="none"></path></g></g><mask></mask><g stroke-linecap="round"><g transform="translate(828.7396155170549 724.7229803167313) rotate(0 -89.97959772751915 -13.445227246640798)"><path d="M0.39 -0.07 C-29.34 -4.43, -148.84 -21.23, -178.79 -25.81" stroke="#868e96" stroke-width="2.5" fill="none" stroke-dasharray="8 10"></path></g><g transform="translate(828.7396155170549 724.7229803167313) rotate(0 -89.97959772751915 -13.445227246640798)"><path d="M-149.42 -31.89 C-157.31 -28.24, -163.17 -27.52, -178.79 -25.81" stroke="#868e96" stroke-width="2.5" fill="none"></path></g><g transform="translate(828.7396155170549 724.7229803167313) rotate(0 -89.97959772751915 -13.445227246640798)"><path d="M-152.38 -11.58 C-159.54 -13.33, -164.62 -18, -178.79 -25.81" stroke="#868e96" stroke-width="2.5" fill="none"></path></g></g><mask></mask><g stroke-linecap="round"><g transform="translate(828.7396155170549 618.1954105933464) rotate(0 -89.4624736026484 33.61306811660205)"><path d="M1.17 1.08 C-28.61 12.2, -148.11 55.78, -178.3 66.61" stroke="#868e96" stroke-width="2.5" fill="none" stroke-dasharray="8 10"></path></g><g transform="translate(828.7396155170549 618.1954105933464) rotate(0 -89.4624736026484 33.61306811660205)"><path d="M-155.29 47.36 C-161.14 55.02, -171.61 58.65, -178.3 66.61" stroke="#868e96" stroke-width="2.5" fill="none"></path></g><g transform="translate(828.7396155170549 618.1954105933464) rotate(0 -89.4624736026484 33.61306811660205)"><path d="M-148.3 66.65 C-156.46 67.98, -169.26 65.2, -178.3 66.61" stroke="#868e96" stroke-width="2.5" fill="none"></path></g></g><mask></mask><g stroke-linecap="round"><g transform="translate(516.4856650981934 351.3527447492254) rotate(0 -168.58246470788072 41.6284920520994)"><path d="M0 0 C-56.19 13.88, -280.97 69.38, -337.16 83.26 M0 0 C-56.19 13.88, -280.97 69.38, -337.16 83.26" stroke="#868e96" stroke-width="2" fill="none"></path></g><g transform="translate(516.4856650981934 351.3527447492254) rotate(0 -168.58246470788072 41.6284920520994)"><path d="M-312.26 66.54 C-320.87 72.32, -329.49 78.1, -337.16 83.26 M-312.26 66.54 C-322.19 73.21, -332.13 79.88, -337.16 83.26" stroke="#868e96" stroke-width="2" fill="none"></path></g><g transform="translate(516.4856650981934 351.3527447492254) rotate(0 -168.58246470788072 41.6284920520994)"><path d="M-307.34 86.46 C-317.65 85.35, -327.97 84.24, -337.16 83.26 M-307.34 86.46 C-319.24 85.18, -331.14 83.9, -337.16 83.26" stroke="#868e96" stroke-width="2" fill="none"></path></g></g><mask></mask><g transform="translate(20.828758751291957 221.5) rotate(0 92.51667022705078 12.5)"><text x="0" y="0" font-family="Virgil, Segoe UI Emoji" font-size="20px" fill="#1e1e1e" text-anchor="start" style="white-space: pre;" direction="ltr" dominant-baseline="text-before-edge">Source Environment</text></g><g transform="translate(653.3120885242412 10) rotate(0 116.33333587646484 12.5)"><text x="0" y="0" font-family="Virgil, Segoe UI Emoji" font-size="20px" fill="#1e1e1e" text-anchor="start" style="white-space: pre;" direction="ltr" dominant-baseline="text-before-edge">Destination Environment</text></g></svg>