<svg version="1.1" xmlns="http://www.w3.org/2000/svg" viewBox="0 0 960.0921769195738 617.4248817698091" width="960.0921769195738" height="617.4248817698091">
  <!-- svg-source:excalidraw -->
  
  <defs>
    <style class="style-fonts">
      @font-face {
        font-family: "Virgil";
        src: url("https://excalidash.opendefense.cloud//dist/excalidraw-assets/Virgil.woff2");
      }
      @font-face {
        font-family: "Cascadia";
        src: url("https://excalidash.opendefense.cloud//dist/excalidraw-assets/Cascadia.woff2");
      }
      @font-face {
        font-family: "Assistant";
        src: url("https://excalidash.opendefense.cloud//dist/excalidraw-assets/Assistant-Regular.woff2");
      }
    </style>
    
  </defs>
  <rect x="0" y="0" width="960.0921769195738" height="617.4248817698091" fill="#ffffff"></rect><g stroke-linecap="round" transform="translate(10 237.08780547603965) rotate(0 102.41765752325597 141.25)"><path d="M32 0 C78.61 -0.55, 129.48 1.23, 172.84 0 M172.84 0 C194.53 -1.04, 205.74 11.93, 204.84 32 M204.84 32 C202.33 86.6, 204.73 142.6, 204.84 250.5 M204.84 250.5 C203.34 271.71, 193.02 284.44, 172.84 282.5 M172.84 282.5 C140.48 284.65, 110.14 283.16, 32 282.5 M32 282.5 C12.58 283.96, -0.63 270.8, 0 250.5 M0 250.5 C1.26 163.96, 0.46 79.46, 0 32 M0 32 C-1.3 9.65, 10.77 -1.49, 32 0" stroke="#1e1e1e" stroke-width="2.5" fill="none" stroke-dasharray="8 10"></path></g><g stroke-linecap="round" transform="translate(473.43465941699003 149.58780547603965) rotate(0 238.3287587512919 193.75)"><path d="M32 0 C163.51 1.14, 294.45 -0.23, 444.66 0 M444.66 0 C466.9 1.27, 475.78 9.15, 476.66 32 M476.66 32 C476.36 156.57, 474.25 283.12, 476.66 355.5 M476.66 355.5 C475.51 378.78, 464.36 385.97, 444.66 387.5 M444.66 387.5 C308.65 389.62, 174.89 390.27, 32 387.5 M32 387.5 C10.03 386.47, 1.87 376.56, 0 355.5 M0 355.5 C-1.13 265.04, -2.19 172.41, 0 32 M0 32 C0.1 9.18, 9.63 0.95, 32 0" stroke="#1e1e1e" stroke-width="2.5" fill="none" stroke-dasharray="8 10"></path></g><g stroke-linecap="round" transform="translate(527.93465941699 399.58780547603965) rotate(0 63 37.5)"><path d="M18.75 0 C44.35 -1.69, 70.13 0.61, 107.25 0 M18.75 0 C40.8 -1.56, 64.84 -1.53, 107.25 0 M107.25 0 C118.25 -0.13, 124.85 8.19, 126 18.75 M107.25 0 C117.88 -1.75, 126.65 4.45, 126 18.75 M126 18.75 C127.71 34.76, 125.16 46.81, 126 56.25 M126 18.75 C126.52 33.18, 126.07 48.79, 126 56.25 M126 56.25 C124.7 67.74, 119.85 73.51, 107.25 75 M126 56.25 C124.81 69.84, 121.93 75.54, 107.25 75 M107.25 75 C78.5 73.86, 46.22 76.33, 18.75 75 M107.25 75 C83.68 75.69, 57.33 75.15, 18.75 75 M18.75 75 C7.88 76.19, -1.66 70, 0 56.25 M18.75 75 C8.15 74.13, 1.64 69.23, 0 56.25 M0 56.25 C-1.35 43.54, -1.3 31, 0 18.75 M0 56.25 C0.03 42.45, 1.07 29.47, 0 18.75 M0 18.75 C-1.46 5.19, 5.49 1.97, 18.75 0 M0 18.75 C-0.04 7.57, 8.45 -1.53, 18.75 0" stroke="#f08c00" stroke-width="1" fill="none"></path></g><g transform="translate(571.151326592283 424.58780547603965) rotate(0 19.78333282470703 12.5)"><text x="19.78333282470703" y="0" font-family="Virgil, Segoe UI Emoji" font-size="20px" fill="#f08c00" text-anchor="middle" style="white-space: pre;" direction="ltr" dominant-baseline="text-before-edge">ARC</text></g><g stroke-linecap="round" transform="translate(781.4346594169901 395.08780547603965) rotate(0 63 37.5)"><path d="M18.75 0 C39.82 -2.08, 64.41 -1.78, 107.25 0 M18.75 0 C37.69 0.6, 57.56 1.63, 107.25 0 M107.25 0 C118.12 -1.53, 126.56 4.69, 126 18.75 M107.25 0 C121.77 -1.26, 126.3 8.45, 126 18.75 M126 18.75 C127.75 32.47, 125.52 47.88, 126 56.25 M126 18.75 C125.4 28.29, 126.1 38.09, 126 56.25 M126 56.25 C124.96 69.7, 121.64 75.47, 107.25 75 M126 56.25 C126.82 69.87, 121.58 76.09, 107.25 75 M107.25 75 C88.41 76.22, 70.49 77.15, 18.75 75 M107.25 75 C75.4 75.73, 41.09 75.76, 18.75 75 M18.75 75 C7.9 74.24, 1.43 69.16, 0 56.25 M18.75 75 C7.52 76.57, -1.33 67.49, 0 56.25 M0 56.25 C1.6 42.08, 1.17 30.82, 0 18.75 M0 56.25 C-1.01 44.2, -0.65 34.2, 0 18.75 M0 18.75 C-0.03 7.4, 8.17 -1.33, 18.75 0 M0 18.75 C0.31 8.2, 7.74 -0.85, 18.75 0" stroke="#e03131" stroke-width="1" fill="none"></path></g><g transform="translate(819.2179922416972 420.08780547603965) rotate(0 25.21666717529297 12.5)"><text x="25.21666717529297" y="0" font-family="Virgil, Segoe UI Emoji" font-size="20px" fill="#e03131" text-anchor="middle" style="white-space: pre;" direction="ltr" dominant-baseline="text-before-edge">Solar</text></g><g stroke-linecap="round" transform="translate(527.43465941699 216.08780547603965) rotate(0 63 37.5)"><path d="M18.75 0 C37.03 2.08, 56.93 -0.96, 107.25 0 M18.75 0 C43.93 -1.62, 71.01 -1.64, 107.25 0 M107.25 0 C121.51 -1.1, 126.26 8.16, 126 18.75 M107.25 0 C121.43 -0.73, 124.81 8.4, 126 18.75 M126 18.75 C125.29 29.72, 126.99 38.93, 126 56.25 M126 18.75 C125.5 28.57, 126.97 37.69, 126 56.25 M126 56.25 C126.71 69.72, 121.34 75.95, 107.25 75 M126 56.25 C123.88 66.87, 120.47 74.47, 107.25 75 M107.25 75 C77.92 73.99, 46.12 77.46, 18.75 75 M107.25 75 C76.25 75.17, 44.31 75.76, 18.75 75 M18.75 75 C7.36 76.36, -1.16 67.65, 0 56.25 M18.75 75 C6.96 73.8, 1.62 70.36, 0 56.25 M0 56.25 C-0.04 49.76, 1.77 38.86, 0 18.75 M0 56.25 C0.12 47.57, 1.1 37.07, 0 18.75 M0 18.75 C0.27 7.95, 7.55 -0.74, 18.75 0 M0 18.75 C-0.6 5.2, 4.67 0.6, 18.75 0" stroke="#2f9e44" stroke-width="1" fill="none"></path></g><g transform="translate(550.7679914787576 228.58780547603965) rotate(0 39.66666793823242 25)"><text x="39.66666793823242" y="0" font-family="Virgil, Segoe UI Emoji" font-size="20px" fill="#2f9e44" text-anchor="middle" style="white-space: pre;" direction="ltr" dominant-baseline="text-before-edge">Registry</text><text x="39.66666793823242" y="25" font-family="Virgil, Segoe UI Emoji" font-size="20px" fill="#2f9e44" text-anchor="middle" style="white-space: pre;" direction="ltr" dominant-baseline="text-before-edge">-source-</text></g><g stroke-linecap="round"><g transform="translate(373.93465941699003 13.837805476039648) rotate(0 -2.0017001893733664 295.4846982956394)"><path d="M2.05 -0.89 C1.08 97.6, -4.38 495.03, -5.45 593.59 M-0.29 -3.84 C-0.35 95.12, 1.19 490.47, 0.17 590" stroke="#1e1e1e" stroke-width="1" fill="none"></path></g></g><mask></mask><g stroke-linecap="round" transform="translate(52.037404166214856 284.0125693346312) rotate(0 63 37.5)"><path d="M18.75 0 C51.44 -1.4, 81 0, 107.25 0 M18.75 0 C39.65 -0.18, 59.02 0.07, 107.25 0 M107.25 0 C121.34 0.95, 124.15 4.62, 126 18.75 M107.25 0 C120.47 -0.53, 127.08 6.25, 126 18.75 M126 18.75 C126.55 35.14, 127.45 46.61, 126 56.25 M126 18.75 C127.02 32.55, 126.86 46.62, 126 56.25 M126 56.25 C124.84 67.65, 120.37 73.95, 107.25 75 M126 56.25 C127.62 70.36, 117.73 76.12, 107.25 75 M107.25 75 C85.3 74.19, 58.37 74.9, 18.75 75 M107.25 75 C72.95 74.84, 36.87 76.36, 18.75 75 M18.75 75 C7.55 74.26, -0.52 67.84, 0 56.25 M18.75 75 C4.67 75.6, 1.2 68.03, 0 56.25 M0 56.25 C0.01 43.2, -0.19 29.82, 0 18.75 M0 56.25 C-1.01 47.33, -0.73 38.08, 0 18.75 M0 18.75 C0.51 5.41, 4.98 1.27, 18.75 0 M0 18.75 C-2.14 7.84, 4.4 -2, 18.75 0" stroke="#2f9e44" stroke-width="1" fill="none"></path></g><g transform="translate(75.52073775386134 296.5125693346312) rotate(0 39.516666412353516 25)"><text x="39.516666412353516" y="0" font-family="Virgil, Segoe UI Emoji" font-size="20px" fill="#2f9e44" text-anchor="middle" style="white-space: pre;" direction="ltr" dominant-baseline="text-before-edge">OCI</text><text x="39.516666412353516" y="25" font-family="Virgil, Segoe UI Emoji" font-size="20px" fill="#2f9e44" text-anchor="middle" style="white-space: pre;" direction="ltr" dominant-baseline="text-before-edge">Registry</text></g><g stroke-linecap="round" transform="translate(45.32875875129196 396.17336498482524) rotate(0 63 37.5)"><path d="M18.75 0 C38.07 -1.08, 61.31 1.85, 107.25 0 M18.75 0 C48.16 0.04, 75.06 -1.25, 107.25 0 M107.25 0 C120.38 -0.46, 126.94 6.25, 126 18.75 M107.25 0 C121.9 1.59, 123.88 6.59, 126 18.75 M126 18.75 C127.47 34.71, 125.46 48.8, 126 56.25 M126 18.75 C125.63 30.23, 126.52 42.28, 126 56.25 M126 56.25 C127.41 70.15, 118 75.98, 107.25 75 M126 56.25 C125.31 68.91, 121.45 77.25, 107.25 75 M107.25 75 C89.13 74.63, 68.23 76.58, 18.75 75 M107.25 75 C87.25 75.38, 65.69 75.3, 18.75 75 M18.75 75 C4.88 75.52, 1.04 68.12, 0 56.25 M18.75 75 C6.94 75.91, -0.14 68.93, 0 56.25 M0 56.25 C-1.36 46.62, -0.51 34.43, 0 18.75 M0 56.25 C0.5 45.46, -0.39 36.15, 0 18.75 M0 18.75 C-1.86 7.63, 4.64 -1.74, 18.75 0 M0 18.75 C-1.05 8.12, 7.34 1.23, 18.75 0" stroke="#e03131" stroke-width="1" fill="none"></path></g><g transform="translate(83.11209157599899 421.17336498482524) rotate(0 25.21666717529297 12.5)"><text x="25.21666717529297" y="0" font-family="Virgil, Segoe UI Emoji" font-size="20px" fill="#e03131" text-anchor="middle" style="white-space: pre;" direction="ltr" dominant-baseline="text-before-edge">Solar</text></g><g mask="url(#mask-nvTh_-PYPdL8BKd4eZ6jl)" stroke-linecap="round"><g transform="translate(590.8407396431071 393.83780547603965) rotate(0 -0.6287647494986004 -48.99999999999997)"><path d="M0.38 -0.28 C0.44 -16.45, -0.61 -81.85, -0.69 -98 M-0.89 -1.47 C-0.83 -17.35, -1.44 -80.2, -1.35 -96.46" stroke="#868e96" stroke-width="1" fill="none"></path></g><g transform="translate(590.8407396431071 393.83780547603965) rotate(0 -0.6287647494986004 -48.99999999999997)"><path d="M8.99 -68.3 C6.61 -73.18, 4.93 -78.09, -1.35 -96.46 M8.99 -68.3 C6.25 -78.09, 0.79 -88.45, -1.35 -96.46" stroke="#868e96" stroke-width="1" fill="none"></path></g><g transform="translate(590.8407396431071 393.83780547603965) rotate(0 -0.6287647494986004 -48.99999999999997)"><path d="M-11.53 -68.25 C-9.65 -73.2, -7.07 -78.13, -1.35 -96.46 M-11.53 -68.25 C-6.69 -78.08, -4.58 -88.47, -1.35 -96.46" stroke="#868e96" stroke-width="1" fill="none"></path></g></g><mask id="mask-nvTh_-PYPdL8BKd4eZ6jl"><rect x="0" y="0" fill="#fff" width="692.0982691421043" height="591.8378054760396"></rect><rect x="517.0619733677295" y="324.83780547603965" fill="#000" width="146.3000030517578" height="40" opacity="1"></rect></mask><g transform="translate(517.0619733677295 324.83780547603965) rotate(0 73.29044698899656 19.860405703634058)"><text x="73.1500015258789" y="0" font-family="Virgil, Segoe UI Emoji" font-size="16px" fill="#868e96" text-anchor="middle" style="white-space: pre;" direction="ltr" dominant-baseline="text-before-edge">Pushes</text><text x="73.1500015258789" y="20" font-family="Virgil, Segoe UI Emoji" font-size="16px" fill="#868e96" text-anchor="middle" style="white-space: pre;" direction="ltr" dominant-baseline="text-before-edge">OCM Packages (3)</text></g><g mask="url(#mask-Hghxngg9BoawrkTDd1sxz)" stroke-linecap="round"><g transform="translate(515.9856650981935 429.80799398831255) rotate(0 -164.08246470788072 -45.31509287466298)"><path d="M0 0 C-54.69 -15.11, -273.47 -75.53, -328.16 -90.63 M0 0 C-54.69 -15.11, -273.47 -75.53, -328.16 -90.63" stroke="#868e96" stroke-width="2" fill="none"></path></g><g transform="translate(515.9856650981935 429.80799398831255) rotate(0 -164.08246470788072 -45.31509287466298)"><path d="M-298.26 -93.02 C-307.05 -92.31, -315.84 -91.61, -328.16 -90.63 M-298.26 -93.02 C-306.46 -92.36, -314.65 -91.71, -328.16 -90.63" stroke="#868e96" stroke-width="2" fill="none"></path></g><g transform="translate(515.9856650981935 429.80799398831255) rotate(0 -164.08246470788072 -45.31509287466298)"><path d="M-303.72 -73.24 C-310.91 -78.35, -318.09 -83.46, -328.16 -90.63 M-303.72 -73.24 C-310.42 -78, -317.12 -82.77, -328.16 -90.63" stroke="#868e96" stroke-width="2" fill="none"></path></g></g><mask id="mask-Hghxngg9BoawrkTDd1sxz"><rect x="0" y="0" fill="#fff" width="944.150594513955" height="620.4381797376385"></rect><rect x="256.1281988644339" y="374.4929011136495" fill="#000" width="191.5500030517578" height="20" opacity="1"></rect></mask><g transform="translate(256.1281988644339 374.49290111364957) rotate(0 95.7750015258789 10)"><text x="95.7750015258789" y="0" font-family="Virgil, Segoe UI Emoji" font-size="16px" fill="#868e96" text-anchor="middle" style="white-space: pre;" direction="ltr" dominant-baseline="text-before-edge">Pulls OCM Packages (2)</text></g><g stroke-linecap="round" transform="translate(775 205.39958589136597) rotate(0 63 37.5)"><path d="M18.75 0 C43.02 -1.06, 69.19 -0.64, 107.25 0 M18.75 0 C50.69 -0.65, 83.76 -0.82, 107.25 0 M107.25 0 C121.23 -1.47, 127.51 5.14, 126 18.75 M107.25 0 C118.02 0.22, 127.14 5, 126 18.75 M126 18.75 C125.19 28.28, 127.32 35.65, 126 56.25 M126 18.75 C125 30.06, 125.96 43.68, 126 56.25 M126 56.25 C125.22 69.18, 120.77 73.4, 107.25 75 M126 56.25 C125.32 69.64, 121.68 77.3, 107.25 75 M107.25 75 C76 73.73, 44.15 73.92, 18.75 75 M107.25 75 C76.57 75.98, 47.58 75.26, 18.75 75 M18.75 75 C5.34 76.46, -0.53 66.94, 0 56.25 M18.75 75 C5.28 76.44, -2.27 67.86, 0 56.25 M0 56.25 C-1.37 44.65, 0.59 34.04, 0 18.75 M0 56.25 C0.24 43.92, -0.49 30.04, 0 18.75 M0 18.75 C0.13 6.25, 7 -1.05, 18.75 0 M0 18.75 C-1.03 4, 7.98 0.11, 18.75 0" stroke="#ff8787" stroke-width="1" fill="none"></path></g><g transform="translate(792.3499984741211 217.89958589136597) rotate(0 45.650001525878906 25)"><text x="45.650001525878906" y="0" font-family="Virgil, Segoe UI Emoji" font-size="20px" fill="#ff8787" text-anchor="middle" style="white-space: pre;" direction="ltr" dominant-baseline="text-before-edge">Solar</text><text x="45.650001525878906" y="25" font-family="Virgil, Segoe UI Emoji" font-size="20px" fill="#ff8787" text-anchor="middle" style="white-space: pre;" direction="ltr" dominant-baseline="text-before-edge">Discovery</text></g><g mask="url(#mask-Fy2mjd88qnO-FM3woUdrD)" stroke-linecap="round"><g transform="translate(772.4785131018657 242.9942867592156) rotate(0 -53.73925655093285 2.7258537155720717)"><path d="M-0.34 -0.75 C-18.58 -0.02, -90.9 3.4, -108.63 4.35 M1.69 1.46 C-16.28 2.32, -88.4 4.55, -106.52 5.31" stroke="#868e96" stroke-width="1" fill="none"></path></g><g transform="translate(772.4785131018657 242.9942867592156) rotate(0 -53.73925655093285 2.7258537155720717)"><path d="M-78.72 -5.96 C-90.22 -3.81, -101.03 3.55, -106.52 5.31 M-78.72 -5.96 C-86.71 -1.93, -93.02 0.23, -106.52 5.31" stroke="#868e96" stroke-width="1" fill="none"></path></g><g transform="translate(772.4785131018657 242.9942867592156) rotate(0 -53.73925655093285 2.7258537155720717)"><path d="M-77.98 14.55 C-89.74 9.15, -100.83 8.96, -106.52 5.31 M-77.98 14.55 C-86.35 13.3, -92.85 10.17, -106.52 5.31" stroke="#868e96" stroke-width="1" fill="none"></path></g></g><mask id="mask-Fy2mjd88qnO-FM3woUdrD"><rect x="0" y="0" fill="#fff" width="979.9570262037314" height="348.4459941903598"></rect><rect x="687.1309229632864" y="225.7201404747877" fill="#000" width="63.21666717529297" height="40" opacity="1"></rect></mask><g transform="translate(687.1309229632864 225.72014047478768) rotate(0 31.874859459451443 19.550119189643297)"><text x="31.608333587646484" y="0" font-family="Virgil, Segoe UI Emoji" font-size="16px" fill="#868e96" text-anchor="middle" style="white-space: pre;" direction="ltr" dominant-baseline="text-before-edge">Scans</text><text x="31.608333587646484" y="20" font-family="Virgil, Segoe UI Emoji" font-size="16px" fill="#868e96" text-anchor="middle" style="white-space: pre;" direction="ltr" dominant-baseline="text-before-edge">Registry</text></g><g mask="url(#mask-WTMjNxRimues_oALqbP01)" stroke-linecap="round"><g transform="translate(841.7297631183944 288.89958589136603) rotate(0 0.15715375407671672 48.43821958467365)"><path d="M0.32 1.1 C0.37 16.98, -0.58 79.92, -0.56 95.92 M-0.97 0.63 C-0.47 16.57, 1.57 80.64, 1.69 96.96" stroke="#868e96" stroke-width="1" fill="none"></path></g><g transform="translate(841.7297631183944 288.89958589136603) rotate(0 0.15715375407671672 48.43821958467365)"><path d="M-9.17 69 C-4.73 73.84, -5.69 81.86, 1.69 96.96 M-9.17 69 C-6.03 77.81, -1.67 86.68, 1.69 96.96" stroke="#868e96" stroke-width="1" fill="none"></path></g><g transform="translate(841.7297631183944 288.89958589136603) rotate(0 0.15715375407671672 48.43821958467365)"><path d="M11.35 68.56 C11.15 73.55, 5.55 81.67, 1.69 96.96 M11.35 68.56 C7.93 77.4, 5.72 86.41, 1.69 96.96" stroke="#868e96" stroke-width="1" fill="none"></path></g></g><mask id="mask-WTMjNxRimues_oALqbP01"><rect x="0" y="0" fill="#fff" width="942.0440706265479" height="485.7760250607133"></rect><rect x="787.9202496971782" y="327.3378054760396" fill="#000" width="107.93333435058594" height="20" opacity="1"></rect></mask><g transform="translate(787.9202496971782 327.33780547603965) rotate(0 54.169043263299386 10.356144157992702)"><text x="53.96666717529297" y="0" font-family="Virgil, Segoe UI Emoji" font-size="16px" fill="#868e96" text-anchor="middle" style="white-space: pre;" direction="ltr" dominant-baseline="text-before-edge">Creates C/CV</text></g><g transform="translate(640.5 98.39958589136597) rotate(0 116.38333129882812 12.5)"><text x="0" y="0" font-family="Virgil, Segoe UI Emoji" font-size="20px" fill="#1e1e1e" text-anchor="start" style="white-space: pre;" direction="ltr" dominant-baseline="text-before-edge">Destination Environment</text></g><g transform="translate(25.666664123535156 200.89958589136597) rotate(0 92.55000305175781 12.5)"><text x="0" y="0" font-family="Virgil, Segoe UI Emoji" font-size="20px" fill="#1e1e1e" text-anchor="start" style="white-space: pre;" direction="ltr" dominant-baseline="text-before-edge">Source Environment</text></g><g mask="url(#mask-il2-hNNF45T8CzWrBH3Py)" stroke-linecap="round"><g transform="translate(515 453.76505744509967) rotate(0 -164.25 -3.6387939813150467)"><path d="M-0.85 -0.26 C-55.67 -1.47, -274.34 -5.58, -328.82 -6.9 M0.9 -1.45 C-54.11 -3.06, -275.1 -7.85, -329.94 -8.83" stroke="#868e96" stroke-width="1" fill="none"></path></g><g transform="translate(515 453.76505744509967) rotate(0 -164.25 -3.6387939813150467)"><path d="M-301.54 -18.52 C-310.66 -16.28, -318.3 -11.49, -329.94 -8.83 M-301.54 -18.52 C-308.49 -15.71, -314.77 -14.11, -329.94 -8.83" stroke="#868e96" stroke-width="1" fill="none"></path></g><g transform="translate(515 453.76505744509967) rotate(0 -164.25 -3.6387939813150467)"><path d="M-301.96 2 C-311 -2.05, -318.52 -3.55, -329.94 -8.83 M-301.96 2 C-309 0.19, -315.18 -2.83, -329.94 -8.83" stroke="#868e96" stroke-width="1" fill="none"></path></g></g><mask id="mask-il2-hNNF45T8CzWrBH3Py"><rect x="0" y="0" fill="#fff" width="943.5" height="561.0426454077298"></rect><rect x="238.6999969482422" y="430.1262634637846" fill="#000" width="224.10000610351562" height="40" opacity="1"></rect></mask><g transform="translate(238.6999969482422 430.12626346378465) rotate(0 111.78345796442596 19.09377795283214)"><text x="112.05000305175781" y="0" font-family="Virgil, Segoe UI Emoji" font-size="16px" fill="#868e96" text-anchor="middle" style="white-space: pre;" direction="ltr" dominant-baseline="text-before-edge">Reads Catalog and Creates</text><text x="112.05000305175781" y="20" font-family="Virgil, Segoe UI Emoji" font-size="16px" fill="#868e96" text-anchor="middle" style="white-space: pre;" direction="ltr" dominant-baseline="text-before-edge">Orders (1)</text></g><g stroke-linecap="round"><g transform="translate(322 454.899585891366) rotate(0 0 0)"><path d="M-0.09 0.1 C-0.05 0.14, -0.15 0.23, -0.1 0.25 M0.51 -0.16 C0.53 -0.21, -0.37 -0.21, -0.43 -0.25" stroke="#868e96" stroke-width="1" fill="none"></path></g><g transform="translate(322 454.899585891366) rotate(0 0 0)"><path d="M-0.43 -0.25 C-0.43 -0.25, -0.43 -0.25, -0.43 -0.25 M-0.43 -0.25 C-0.43 -0.25, -0.43 -0.25, -0.43 -0.25" stroke="#868e96" stroke-width="1" fill="none"></path></g><g transform="translate(322 454.899585891366) rotate(0 0 0)"><path d="M-0.43 -0.25 C-0.43 -0.25, -0.43 -0.25, -0.43 -0.25 M-0.43 -0.25 C-0.43 -0.25, -0.43 -0.25, -0.43 -0.25" stroke="#868e96" stroke-width="1" fill="none"></path></g></g><mask></mask></svg>