<svg version="1.1" xmlns="http://www.w3.org/2000/svg" viewBox="0 0 1027.0000000000002 504.2365196078431" width="1027.0000000000002" height="504.2365196078431">
  <!-- svg-source:excalidraw -->
  
  <defs>
    <style class="style-fonts">
      @font-face {
        font-family: "Virgil";
        src: url("https://excalidash.opendefense.cloud//dist/excalidraw-assets/Virgil.woff2");
      }
      @font-face {
        font-family: "Cascadia";
        src: url("https://excalidash.opendefense.cloud//dist/excalidraw-assets/Cascadia.woff2");
      }
      @font-face {
        font-family: "Assistant";
        src: url("https://excalidash.opendefense.cloud//dist/excalidraw-assets/Assistant-Regular.woff2");
      }
    </style>
    
  </defs>
  <rect x="0" y="0" width="1027.0000000000002" height="504.2365196078431" fill="#ffffff"></rect><g stroke-linecap="round" transform="translate(10 10) rotate(0 503.5000000000001 221.2745098039216)"><path d="M32 0 C378.81 3.63, 724.38 3.01, 975 0 M32 0 C284.79 3.44, 536.51 3.26, 975 0 M975 0 C995.68 -0.09, 1008.23 12, 1007 32 M975 0 C994.74 1.86, 1005.95 12.46, 1007 32 M1007 32 C1008.59 136.52, 1008.08 238.67, 1007 410.55 M1007 32 C1008.06 182.02, 1007.9 331.42, 1007 410.55 M1007 410.55 C1007.64 430.76, 996.8 443.52, 975 442.55 M1007 410.55 C1007 434.02, 996.97 443.22, 975 442.55 M975 442.55 C658.57 443.4, 340.75 443.01, 32 442.55 M975 442.55 C745.78 443.72, 515.82 443.65, 32 442.55 M32 442.55 C9.5 443.18, -0.98 430.26, 0 410.55 M32 442.55 C8.75 442.09, -0.14 433.71, 0 410.55 M0 410.55 C-1.18 297.06, -1.47 185.28, 0 32 M0 410.55 C-1.07 312.08, -0.92 213.06, 0 32 M0 32 C-0.92 9.85, 12.42 -0.19, 32 0 M0 32 C-2 12.2, 12.32 -0.8, 32 0" stroke="#1e1e1e" stroke-width="2" fill="none"></path></g><g stroke-linecap="round" transform="translate(356.0000000000002 60.5) rotate(0 153.5 178.97058823529403)"><path d="M32 0 C121.26 1.02, 207.87 0.18, 275 0 M275 0 C298.11 1.79, 307.77 9.4, 307 32 M307 32 C309 104.58, 307.31 176.83, 307 325.94 M307 325.94 C307.48 345.99, 295.51 356.97, 275 357.94 M275 357.94 C182.13 357.75, 89.28 355.48, 32 357.94 M32 357.94 C12.42 359.77, -0.11 345.6, 0 325.94 M0 325.94 C0.76 245.53, -0.15 164.55, 0 32 M0 32 C-0.41 10.64, 10.68 -1.45, 32 0" stroke="#f08c00" stroke-width="2.5" fill="none" stroke-dasharray="1.5 8"></path></g><g transform="translate(381.59999465942406 30) rotate(0 129.22500610351562 10)"><text x="129.22500610351562" y="0" font-family="Virgil, Segoe UI Emoji" font-size="16px" fill="#f08c00" text-anchor="middle" style="white-space: pre;" direction="ltr" dominant-baseline="text-before-edge">K8s Cluster Provider Namespace</text></g><g transform="translate(723.3750000000002 29.5) rotate(0 115.625 10)"><text x="115.625" y="0" font-family="Virgil, Segoe UI Emoji" font-size="16px" fill="#2f9e44" text-anchor="middle" style="white-space: pre;" direction="ltr" dominant-baseline="text-before-edge">K8s Cluster User Namespace</text></g><g stroke-linecap="round" transform="translate(195.00000000000023 84.5) rotate(0 50 27.5)"><path d="M13.75 0 C38.22 0.14, 61.81 -0.31, 86.25 0 M13.75 0 C32.34 -0.82, 50.69 -1.27, 86.25 0 M86.25 0 C96.69 -1.51, 101.14 4.57, 100 13.75 M86.25 0 C95.34 -1.56, 102.12 2.82, 100 13.75 M100 13.75 C98.69 22.41, 99.98 33.62, 100 41.25 M100 13.75 C100.01 22.83, 100.14 33.02, 100 41.25 M100 41.25 C100.89 49.02, 93.77 53.8, 86.25 55 M100 41.25 C102.09 52.37, 96.76 55.1, 86.25 55 M86.25 55 C69.47 57.11, 48.98 56.59, 13.75 55 M86.25 55 C67.26 55.56, 48.49 55.24, 13.75 55 M13.75 55 C5.41 55.65, 0.47 48.89, 0 41.25 M13.75 55 C2.86 56.57, 0.77 50.11, 0 41.25 M0 41.25 C-0.08 33.89, 1.89 31.39, 0 13.75 M0 41.25 C0.28 33.33, 0.68 23.24, 0 13.75 M0 13.75 C0.34 5.99, 4.02 -0.21, 13.75 0 M0 13.75 C0.79 6.2, 6.73 1.24, 13.75 0" stroke="#1971c2" stroke-width="2" fill="none"></path></g><g transform="translate(210.11666488647484 100.5) rotate(0 34.88333511352539 10)"><text x="34.88333511352539" y="0" font-family="Virgil, Segoe UI Emoji" font-size="16px" fill="#1971c2" text-anchor="middle" style="white-space: pre;" direction="ltr" dominant-baseline="text-before-edge">CompVers</text></g><g stroke-linecap="round" transform="translate(55.00000000000023 82) rotate(0 50 27.5)"><path d="M13.75 0 C29.78 0.32, 46.47 -1.42, 86.25 0 M13.75 0 C28.44 -0.73, 44.07 -0.06, 86.25 0 M86.25 0 C97.3 0.75, 100.39 2.83, 100 13.75 M86.25 0 C94.02 0.73, 101.21 6.07, 100 13.75 M100 13.75 C100.3 23.48, 99.24 34.88, 100 41.25 M100 13.75 C99.18 21.51, 99.13 27.93, 100 41.25 M100 41.25 C98.29 48.62, 97.14 53.2, 86.25 55 M100 41.25 C97.88 51.82, 97.61 55.39, 86.25 55 M86.25 55 C57.67 55.18, 30.64 54.68, 13.75 55 M86.25 55 C66.81 55.28, 47.4 55.03, 13.75 55 M13.75 55 C4.07 55.35, -1.98 49.53, 0 41.25 M13.75 55 C3.09 53.11, 1.16 51.58, 0 41.25 M0 41.25 C0.68 32.74, 1.42 20.66, 0 13.75 M0 41.25 C0.31 35.3, 0.75 30.28, 0 13.75 M0 13.75 C-0.44 5.6, 5.07 1.52, 13.75 0 M0 13.75 C1.91 6.1, 5.25 1.61, 13.75 0" stroke="#1971c2" stroke-width="2" fill="none"></path></g><g transform="translate(65.61666488647484 98.5) rotate(0 39.38333511352539 10)"><text x="39.38333511352539" y="0" font-family="Virgil, Segoe UI Emoji" font-size="16px" fill="#1971c2" text-anchor="middle" style="white-space: pre;" direction="ltr" dominant-baseline="text-before-edge">Component</text></g><g stroke-linecap="round"><g transform="translate(191.00000000000023 110.6875) rotate(0 -14.5 -0.8535608574759976)"><path d="M-0.36 0.08 C-5.12 -0.07, -23.96 -0.85, -28.64 -1.21 M0.45 -0.36 C-4.33 -0.62, -24.06 -1.7, -28.89 -1.92" stroke="#1971c2" stroke-width="1" fill="none"></path></g><g transform="translate(191.00000000000023 110.6875) rotate(0 -14.5 -0.8535608574759976)"><path d="M-15 -6.19 C-18.75 -4.59, -22.03 -3.17, -28.89 -1.92 M-15 -6.19 C-18.18 -5.06, -21.46 -3.99, -28.89 -1.92" stroke="#1971c2" stroke-width="1" fill="none"></path></g><g transform="translate(191.00000000000023 110.6875) rotate(0 -14.5 -0.8535608574759976)"><path d="M-15.51 3.73 C-19.08 2.6, -22.23 1.27, -28.89 -1.92 M-15.51 3.73 C-18.53 2.56, -21.7 1.32, -28.89 -1.92" stroke="#1971c2" stroke-width="1" fill="none"></path></g></g><mask></mask><g stroke-linecap="round" transform="translate(726.0000000000002 275.1875) rotate(0 50 27.5)"><path d="M13.75 0 C43.43 -1.58, 72.81 -0.35, 86.25 0 M13.75 0 C39.41 0.24, 65.32 0.35, 86.25 0 M86.25 0 C96.02 0.5, 98.75 5.75, 100 13.75 M86.25 0 C96.69 -1.01, 101.61 5.55, 100 13.75 M100 13.75 C98.27 22.38, 99.17 29.19, 100 41.25 M100 13.75 C100.82 21.59, 99.75 29.03, 100 41.25 M100 41.25 C98.32 48.96, 93.92 56.96, 86.25 55 M100 41.25 C98.85 50.52, 95.24 52.87, 86.25 55 M86.25 55 C61.08 54.92, 32.95 54.74, 13.75 55 M86.25 55 C65.38 55.22, 43.99 55.85, 13.75 55 M13.75 55 C4.43 56.75, -0.16 49.11, 0 41.25 M13.75 55 C6.42 53.59, 0.3 48.27, 0 41.25 M0 41.25 C-0.42 32.44, 1.76 26.65, 0 13.75 M0 41.25 C1.12 32.03, 0.11 22.44, 0 13.75 M0 13.75 C0.92 4.94, 4.6 -1.13, 13.75 0 M0 13.75 C-1.58 4.58, 6.65 1.12, 13.75 0" stroke="#f08c00" stroke-width="2" fill="none"></path></g><g transform="translate(747.8916664123537 291.6875) rotate(0 28.108333587646484 10)"><text x="28.108333587646484" y="0" font-family="Virgil, Segoe UI Emoji" font-size="16px" fill="#f08c00" text-anchor="middle" style="white-space: pre;" direction="ltr" dominant-baseline="text-before-edge">Target</text></g><g stroke-linecap="round" transform="translate(384.0000000000002 83.1875) rotate(0 50 27.5)"><path d="M13.75 0 C31.84 1.23, 47.19 1.1, 86.25 0 M13.75 0 C36.53 1.12, 60.3 1.13, 86.25 0 M86.25 0 C96.28 1.1, 101.8 4.1, 100 13.75 M86.25 0 C96.27 2.02, 101.39 5.05, 100 13.75 M100 13.75 C102.1 22.45, 99.65 29.46, 100 41.25 M100 13.75 C99.91 22.96, 99.41 31.03, 100 41.25 M100 41.25 C98.23 51.85, 94.28 53.27, 86.25 55 M100 41.25 C98.98 49.03, 95.83 54.75, 86.25 55 M86.25 55 C63.3 55.8, 35.49 55.94, 13.75 55 M86.25 55 C62.6 55.01, 39.16 55.83, 13.75 55 M13.75 55 C5.24 54.41, 1.33 51.92, 0 41.25 M13.75 55 C6.63 54.98, 0.06 52.68, 0 41.25 M0 41.25 C1.19 31.43, 1.78 19.19, 0 13.75 M0 41.25 C0.24 35.21, -0.03 30.22, 0 13.75 M0 13.75 C-0.37 4.31, 5.88 1.13, 13.75 0 M0 13.75 C-1.87 2.82, 2.73 1.62, 13.75 0" stroke="#f08c00" stroke-width="2" fill="none"></path></g><g transform="translate(403.6749992370608 100.6875) rotate(0 30.325000762939453 10)"><text x="30.325000762939453" y="0" font-family="Virgil, Segoe UI Emoji" font-size="16px" fill="#f08c00" text-anchor="middle" style="white-space: pre;" direction="ltr" dominant-baseline="text-before-edge">Release</text></g><g stroke-linecap="round" transform="translate(532.0000000000002 185.1875) rotate(0 50 27.5)"><path d="M13.75 0 C36.83 -1.26, 56.47 -0.7, 86.25 0 M86.25 0 C93.53 1.66, 98.86 3.45, 100 13.75 M100 13.75 C98.39 23.72, 98.75 35.51, 100 41.25 M100 41.25 C98.31 48.56, 95.28 53.67, 86.25 55 M86.25 55 C60.13 55.13, 37.81 54.25, 13.75 55 M13.75 55 C4.09 53.83, -1.29 49.58, 0 41.25 M0 41.25 C1.27 33.9, -0.24 27.12, 0 13.75 M0 13.75 C1.22 3.03, 3.36 0.67, 13.75 0" stroke="#f08c00" stroke-width="2.5" fill="none" stroke-dasharray="8 10"></path></g><g transform="translate(551.6749992370608 192.6875) rotate(0 30.325000762939453 20)"><text x="30.325000762939453" y="0" font-family="Virgil, Segoe UI Emoji" font-size="16px" fill="#f08c00" text-anchor="middle" style="white-space: pre;" direction="ltr" dominant-baseline="text-before-edge">Release</text><text x="30.325000762939453" y="20" font-family="Virgil, Segoe UI Emoji" font-size="16px" fill="#f08c00" text-anchor="middle" style="white-space: pre;" direction="ltr" dominant-baseline="text-before-edge">Binding</text></g><g stroke-linecap="round" transform="translate(531.0000000000002 89.1875) rotate(0 50 27.5)"><path d="M13.75 0 C27.8 -1.53, 42.5 1.09, 86.25 0 M13.75 0 C40.91 -0.08, 67.75 0.71, 86.25 0 M86.25 0 C96.1 -0.37, 100.53 4.31, 100 13.75 M86.25 0 C97.19 -1.72, 100.91 6.62, 100 13.75 M100 13.75 C100.77 18.49, 101.38 23.45, 100 41.25 M100 13.75 C100.62 23.96, 100.68 33.95, 100 41.25 M100 41.25 C100.58 52.09, 95.98 56.42, 86.25 55 M100 41.25 C102.14 49.78, 94.13 52.98, 86.25 55 M86.25 55 C58.55 55.08, 32.61 54.39, 13.75 55 M86.25 55 C65.1 55.35, 43.18 54.99, 13.75 55 M13.75 55 C2.95 53.76, -0.98 51.98, 0 41.25 M13.75 55 C2.46 55.68, -1.89 51.75, 0 41.25 M0 41.25 C0.05 32, 1.57 24.18, 0 13.75 M0 41.25 C0.27 32.74, 0.99 22.59, 0 13.75 M0 13.75 C0.94 5.01, 3.47 1.42, 13.75 0 M0 13.75 C-1.78 5.64, 3.69 -0.8, 13.75 0" stroke="#f08c00" stroke-width="2" fill="none"></path></g><g transform="translate(555.7166671752932 106.6875) rotate(0 25.28333282470703 10)"><text x="25.28333282470703" y="0" font-family="Virgil, Segoe UI Emoji" font-size="16px" fill="#f08c00" text-anchor="middle" style="white-space: pre;" direction="ltr" dominant-baseline="text-before-edge">Profile</text></g><g stroke-linecap="round"><g transform="translate(518.1832699410138 194.2695338213598) rotate(0 -22.065569526065588 -25.291016910679872)"><path d="M0.32 0.32 C-7.19 -8.11, -37.56 -41.01, -45.14 -49.59 M-0.97 -0.56 C-8.12 -9.39, -35.98 -42.93, -42.96 -51.2" stroke="#f08c00" stroke-width="1" fill="none"></path></g><g transform="translate(518.1832699410138 194.2695338213598) rotate(0 -22.065569526065588 -25.291016910679872)"><path d="M-17.01 -36.15 C-24.24 -42.2, -30.76 -46.74, -42.96 -51.2 M-17.01 -36.15 C-23.35 -39.88, -30.27 -44.41, -42.96 -51.2" stroke="#f08c00" stroke-width="1" fill="none"></path></g><g transform="translate(518.1832699410138 194.2695338213598) rotate(0 -22.065569526065588 -25.291016910679872)"><path d="M-32.75 -22.99 C-35.45 -32.96, -37.34 -41.37, -42.96 -51.2 M-32.75 -22.99 C-35.09 -30.11, -38.06 -37.93, -42.96 -51.2" stroke="#f08c00" stroke-width="1" fill="none"></path></g></g><mask></mask><g stroke-linecap="round"><g transform="translate(640.342180554183 242.39981140037935) rotate(0 39.07890972290875 18.482254045781474)"><path d="M-0.3 -0.96 C12.58 5.07, 65.24 29.97, 78.46 36.3 M1.75 1.15 C14.39 7.31, 64.84 31.28, 77.67 37.5" stroke="#f08c00" stroke-width="1" fill="none"></path></g><g transform="translate(640.342180554183 242.39981140037935) rotate(0 39.07890972290875 18.482254045781474)"><path d="M47.81 34.56 C58.1 36.3, 70.48 38.44, 77.67 37.5 M47.81 34.56 C57.36 35.52, 65.4 36.1, 77.67 37.5" stroke="#f08c00" stroke-width="1" fill="none"></path></g><g transform="translate(640.342180554183 242.39981140037935) rotate(0 39.07890972290875 18.482254045781474)"><path d="M56.68 16.06 C63.47 25.14, 72.31 34.64, 77.67 37.5 M56.68 16.06 C63.42 22.75, 68.74 29.03, 77.67 37.5" stroke="#f08c00" stroke-width="1" fill="none"></path></g></g><mask></mask><g stroke-linecap="round"><g transform="translate(375.0000000000002 116.39187145648305) rotate(0 -38 0.1401484906006658)"><path d="M0.12 -0.22 C-12.58 -0.26, -62.47 -0.16, -75.16 -0.1 M-1.28 -1.39 C-14.16 -1.27, -63.07 0.78, -75.67 1.24" stroke="#f08c00" stroke-width="1" fill="none"></path></g><g transform="translate(375.0000000000002 116.39187145648305) rotate(0 -38 0.1401484906006658)"><path d="M-47.9 -10.11 C-59.02 -4.29, -70.03 -1.37, -75.67 1.24 M-47.9 -10.11 C-56.53 -6.91, -63.16 -3, -75.67 1.24" stroke="#f08c00" stroke-width="1" fill="none"></path></g><g transform="translate(375.0000000000002 116.39187145648305) rotate(0 -38 0.1401484906006658)"><path d="M-47.1 10.39 C-58.55 8.28, -69.88 3.25, -75.67 1.24 M-47.1 10.39 C-56.07 7.69, -62.94 5.68, -75.67 1.24" stroke="#f08c00" stroke-width="1" fill="none"></path></g></g><mask></mask><g stroke-linecap="round"><g transform="translate(524.0000000000002 113.4821700208064) rotate(0 -16.5 -0.9160343250277379)"><path d="M-0.21 0.34 C-5.8 0.1, -27.58 -1.01, -33.03 -1.46 M0.68 0.04 C-5.03 -0.35, -27.83 -1.89, -33.48 -2.23" stroke="#f08c00" stroke-width="1" fill="none"></path></g><g transform="translate(524.0000000000002 113.4821700208064) rotate(0 -16.5 -0.9160343250277379)"><path d="M-17.61 -6.87 C-23.4 -5.1, -29.65 -3.03, -33.48 -2.23 M-17.61 -6.87 C-21.01 -5.76, -24.24 -5.28, -33.48 -2.23" stroke="#f08c00" stroke-width="1" fill="none"></path></g><g transform="translate(524.0000000000002 113.4821700208064) rotate(0 -16.5 -0.9160343250277379)"><path d="M-18.34 4.41 C-23.84 1.7, -29.8 -0.71, -33.48 -2.23 M-18.34 4.41 C-21.63 3.23, -24.71 1.42, -33.48 -2.23" stroke="#f08c00" stroke-width="1" fill="none"></path></g></g><mask></mask><g stroke-linecap="round"><g transform="translate(583.5777996254428 151.6875) rotate(0 0.09676895544754416 11.75)"><path d="M-0.54 -0.22 C-0.48 3.71, -0.35 19.16, -0.16 23.15" stroke="#f08c00" stroke-width="1.5" fill="none" stroke-dasharray="8 9"></path></g><g transform="translate(583.5777996254428 151.6875) rotate(0 0.09676895544754416 11.75)"><path d="M-4.46 12.21 C-3.84 14.13, -3.09 17.23, -0.16 23.15" stroke="#f08c00" stroke-width="1.5" fill="none"></path></g><g transform="translate(583.5777996254428 151.6875) rotate(0 0.09676895544754416 11.75)"><path d="M3.58 12.01 C2.52 13.93, 1.6 17.07, -0.16 23.15" stroke="#f08c00" stroke-width="1.5" fill="none"></path></g></g><mask></mask><g stroke-linecap="round" transform="translate(859.0000000000002 86.4375) rotate(0 50 27.5)"><path d="M13.75 0 C28.12 1.24, 42.75 0.63, 86.25 0 M13.75 0 C36.9 0.01, 59.23 0.83, 86.25 0 M86.25 0 C97.37 -1.48, 99.1 5.91, 100 13.75 M86.25 0 C94.21 -1.78, 100.61 5.42, 100 13.75 M100 13.75 C99.49 22.69, 100.69 28.74, 100 41.25 M100 13.75 C99.18 23.73, 100.77 33.75, 100 41.25 M100 41.25 C100.41 51.01, 95.54 55.95, 86.25 55 M100 41.25 C99.51 51.67, 97.35 53.15, 86.25 55 M86.25 55 C60.59 54.27, 37.41 56.99, 13.75 55 M86.25 55 C59.22 53.53, 31.55 55.24, 13.75 55 M13.75 55 C3.99 56.48, -0.74 52.35, 0 41.25 M13.75 55 C6.8 54.7, 0.48 50.01, 0 41.25 M0 41.25 C-1.59 32.48, 0.31 26.49, 0 13.75 M0 41.25 C-0.16 35.31, 0.91 28.08, 0 13.75 M0 13.75 C-1.79 5.41, 5.29 -0.28, 13.75 0 M0 13.75 C1.38 5.24, 3.45 -1.96, 13.75 0" stroke="#2f9e44" stroke-width="2" fill="none"></path></g><g transform="translate(874.1166648864748 102.4375) rotate(0 34.88333511352539 10)"><text x="34.88333511352539" y="0" font-family="Virgil, Segoe UI Emoji" font-size="16px" fill="#2f9e44" text-anchor="middle" style="white-space: pre;" direction="ltr" dominant-baseline="text-before-edge">CompVers</text></g><g stroke-linecap="round" transform="translate(719.0000000000002 83.9375) rotate(0 50 27.5)"><path d="M13.75 0 C42.85 -1.97, 69.48 0.25, 86.25 0 M13.75 0 C31.59 -0.84, 47.02 0.56, 86.25 0 M86.25 0 C94.37 -1.55, 100.53 5.31, 100 13.75 M86.25 0 C95.24 1.57, 101.85 3.78, 100 13.75 M100 13.75 C101.31 23.8, 101.53 30.95, 100 41.25 M100 13.75 C100.39 22.37, 100.25 30.86, 100 41.25 M100 41.25 C99.57 51.5, 97.1 53.39, 86.25 55 M100 41.25 C101.07 49.35, 96.68 54.4, 86.25 55 M86.25 55 C70.13 54.49, 49.38 56.09, 13.75 55 M86.25 55 C70.74 56.33, 55.46 56.55, 13.75 55 M13.75 55 C6.51 54.74, 0.42 50.06, 0 41.25 M13.75 55 C4.49 54.6, 1.61 48.53, 0 41.25 M0 41.25 C-0.99 32.29, -1.1 25.73, 0 13.75 M0 41.25 C-1.09 30.69, 0.16 19.15, 0 13.75 M0 13.75 C1.2 5.15, 3.6 -1.7, 13.75 0 M0 13.75 C0.2 4.04, 3.52 -0.12, 13.75 0" stroke="#2f9e44" stroke-width="2" fill="none"></path></g><g transform="translate(729.6166648864748 100.4375) rotate(0 39.38333511352539 10)"><text x="39.38333511352539" y="0" font-family="Virgil, Segoe UI Emoji" font-size="16px" fill="#2f9e44" text-anchor="middle" style="white-space: pre;" direction="ltr" dominant-baseline="text-before-edge">Component</text></g><g stroke-linecap="round"><g transform="translate(855.0000000000002 112.625) rotate(0 -14.5 -0.8535608574759976)"><path d="M0.2 -0.37 C-4.57 -0.56, -24.26 -1.34, -29.04 -1.63 M-0.36 0.63 C-5.17 0.59, -24.8 -0.5, -29.49 -0.89" stroke="#2f9e44" stroke-width="1" fill="none"></path></g><g transform="translate(855.0000000000002 112.625) rotate(0 -14.5 -0.8535608574759976)"><path d="M-15.55 -4.95 C-19.2 -4.06, -21.75 -2.38, -29.49 -0.89 M-15.55 -4.95 C-18.9 -4.26, -21.76 -2.93, -29.49 -0.89" stroke="#2f9e44" stroke-width="1" fill="none"></path></g><g transform="translate(855.0000000000002 112.625) rotate(0 -14.5 -0.8535608574759976)"><path d="M-16.2 4.97 C-19.66 3.62, -22.07 3.06, -29.49 -0.89 M-16.2 4.97 C-19.38 3.41, -22.1 2.5, -29.49 -0.89" stroke="#2f9e44" stroke-width="1" fill="none"></path></g></g><mask></mask><g stroke-linecap="round" transform="translate(861.0000000000002 176.1875) rotate(0 50 27.5)"><path d="M13.75 0 C33.46 1.54, 54.7 2.14, 86.25 0 M13.75 0 C32.42 -1.38, 51.37 -1.33, 86.25 0 M86.25 0 C94.55 -1.62, 101.69 6.16, 100 13.75 M86.25 0 C94.54 0.75, 101.19 5.4, 100 13.75 M100 13.75 C99.25 22.51, 99.81 31.1, 100 41.25 M100 13.75 C100.9 20.62, 100.39 27.46, 100 41.25 M100 41.25 C98.34 50.83, 97.36 55.02, 86.25 55 M100 41.25 C97.77 50.67, 95.8 54.75, 86.25 55 M86.25 55 C71.06 53.03, 50.9 55.51, 13.75 55 M86.25 55 C60.42 54.4, 34.88 55.4, 13.75 55 M13.75 55 C6.2 54.19, -0.75 52.09, 0 41.25 M13.75 55 C5.7 53.59, -0.45 51.69, 0 41.25 M0 41.25 C-1.56 34.49, -1.56 28.38, 0 13.75 M0 41.25 C-0.21 33.71, 0.21 27.47, 0 13.75 M0 13.75 C0.01 3.2, 4.34 -0.87, 13.75 0 M0 13.75 C-2.12 4.17, 4.59 -1.37, 13.75 0" stroke="#2f9e44" stroke-width="2" fill="none"></path></g><g transform="translate(880.6749992370608 193.6875) rotate(0 30.325000762939453 10)"><text x="30.325000762939453" y="0" font-family="Virgil, Segoe UI Emoji" font-size="16px" fill="#2f9e44" text-anchor="middle" style="white-space: pre;" direction="ltr" dominant-baseline="text-before-edge">Release</text></g><g stroke-linecap="round" transform="translate(723.0000000000002 181.1875) rotate(0 50 27.5)"><path d="M13.75 0 C36.09 0.66, 56.1 1.22, 86.25 0 M13.75 0 C30.25 0.71, 47.53 -0.85, 86.25 0 M86.25 0 C96.57 -0.41, 101.39 6.1, 100 13.75 M86.25 0 C94.8 -1.82, 100.21 5, 100 13.75 M100 13.75 C99.75 19.74, 99.31 29.26, 100 41.25 M100 13.75 C99.82 22.8, 99.74 32.59, 100 41.25 M100 41.25 C98.46 49.68, 96.13 55.59, 86.25 55 M100 41.25 C101.92 49.11, 94.11 53.71, 86.25 55 M86.25 55 C57.43 54.42, 27.55 55.41, 13.75 55 M86.25 55 C68.68 55.75, 51.35 54.33, 13.75 55 M13.75 55 C4.51 55.34, -1.2 51.8, 0 41.25 M13.75 55 C2.54 56.72, 0.77 49.29, 0 41.25 M0 41.25 C-1.57 35.5, 1.18 28.22, 0 13.75 M0 41.25 C0.6 33.94, 1.08 24.05, 0 13.75 M0 13.75 C-0.26 3.75, 5.66 -1.31, 13.75 0 M0 13.75 C2.16 5.17, 4.25 1.54, 13.75 0" stroke="#2f9e44" stroke-width="2" fill="none"></path></g><g transform="translate(742.6749992370608 188.6875) rotate(0 30.325000762939453 20)"><text x="30.325000762939453" y="0" font-family="Virgil, Segoe UI Emoji" font-size="16px" fill="#2f9e44" text-anchor="middle" style="white-space: pre;" direction="ltr" dominant-baseline="text-before-edge">Release</text><text x="30.325000762939453" y="20" font-family="Virgil, Segoe UI Emoji" font-size="16px" fill="#2f9e44" text-anchor="middle" style="white-space: pre;" direction="ltr" dominant-baseline="text-before-edge">Binding</text></g><g stroke-linecap="round"><g transform="translate(911.0000000000002 170.6875) rotate(0 -1.5 -13.5)"><path d="M0.46 0.49 C-0.11 -4.06, -2.88 -22.54, -3.5 -27.07 M0.03 0.26 C-0.37 -4.22, -1.9 -21.76, -2.52 -26.41" stroke="#2f9e44" stroke-width="1" fill="none"></path></g><g transform="translate(911.0000000000002 170.6875) rotate(0 -1.5 -13.5)"><path d="M3.47 -14.21 C2.3 -18.36, -0.14 -21.58, -2.52 -26.41 M3.47 -14.21 C1.48 -18.55, -0.5 -22.93, -2.52 -26.41" stroke="#2f9e44" stroke-width="1" fill="none"></path></g><g transform="translate(911.0000000000002 170.6875) rotate(0 -1.5 -13.5)"><path d="M-5.77 -13.22 C-4.25 -17.69, -3.99 -21.21, -2.52 -26.41 M-5.77 -13.22 C-4.49 -17.95, -3.2 -22.68, -2.52 -26.41" stroke="#2f9e44" stroke-width="1" fill="none"></path></g></g><mask></mask><g stroke-linecap="round"><g transform="translate(828.0000000000002 203.6875) rotate(0 14.5 -0.5)"><path d="M0.23 0.1 C5.09 -0.04, 24.67 -0.32, 29.53 -0.59 M-0.32 -0.33 C4.49 -0.63, 24.44 -1.2, 29.36 -1.35" stroke="#2f9e44" stroke-width="1" fill="none"></path></g><g transform="translate(828.0000000000002 203.6875) rotate(0 14.5 -0.5)"><path d="M15.88 4.02 C20.9 2.73, 26.21 0.58, 29.36 -1.35 M15.88 4.02 C18.76 3.25, 21.32 1.77, 29.36 -1.35" stroke="#2f9e44" stroke-width="1" fill="none"></path></g><g transform="translate(828.0000000000002 203.6875) rotate(0 14.5 -0.5)"><path d="M15.59 -5.9 C20.73 -3.58, 26.15 -2.13, 29.36 -1.35 M15.59 -5.9 C18.57 -4.66, 21.19 -4.13, 29.36 -1.35" stroke="#2f9e44" stroke-width="1" fill="none"></path></g></g><mask></mask><g stroke-linecap="round" transform="translate(869.0000000000002 270.1875) rotate(0 50 27.5)"><path d="M13.75 0 C35.31 1.05, 55.94 1.01, 86.25 0 M86.25 0 C95.28 0.72, 101.67 3.68, 100 13.75 M100 13.75 C99.64 20.96, 100.09 26.38, 100 41.25 M100 41.25 C100.2 49.63, 95.99 55.5, 86.25 55 M86.25 55 C69.57 55.09, 54.09 54.52, 13.75 55 M13.75 55 C5.87 55.22, -1.98 49.04, 0 41.25 M0 41.25 C0.84 36.3, -1.86 27.4, 0 13.75 M0 13.75 C0.66 3.35, 3.45 -1.8, 13.75 0" stroke="#f08c00" stroke-width="2.5" fill="none" stroke-dasharray="8 10"></path></g><g transform="translate(893.10000038147 280.6875) rotate(0 25.899999618530273 20)"><text x="25.899999618530273" y="0" font-family="Virgil, Segoe UI Emoji" font-size="16px" fill="#f08c00" text-anchor="middle" style="white-space: pre;" direction="ltr" dominant-baseline="text-before-edge">Render</text><text x="25.899999618530273" y="20" font-family="Virgil, Segoe UI Emoji" font-size="16px" fill="#f08c00" text-anchor="middle" style="white-space: pre;" direction="ltr" dominant-baseline="text-before-edge">Task</text></g><g stroke-linecap="round"><g transform="translate(834.5000000000003 304.17940492147613) rotate(0 12.798007965087834 0.3790857926367721)"><path d="M0.09 -0.12 C4.44 0.13, 21.8 1.05, 26 1.21" stroke="#f08c00" stroke-width="1.5" fill="none" stroke-dasharray="8 9"></path></g><g transform="translate(834.5000000000003 304.17940492147613) rotate(0 12.798007965087834 0.3790857926367721)"><path d="M13.78 5.02 C17.06 4.42, 21.12 2.57, 26 1.21" stroke="#f08c00" stroke-width="1.5" fill="none"></path></g><g transform="translate(834.5000000000003 304.17940492147613) rotate(0 12.798007965087834 0.3790857926367721)"><path d="M14.19 -3.73 C17.33 -1.89, 21.29 -1.31, 26 1.21" stroke="#f08c00" stroke-width="1.5" fill="none"></path></g></g><mask></mask><g transform="translate(30.477447928634547 471.2365196078431) rotate(0 95.39167022705078 10)"><text x="0" y="0" font-family="Virgil, Segoe UI Emoji" font-size="16px" fill="#1e1e1e" text-anchor="start" style="white-space: pre;" direction="ltr" dominant-baseline="text-before-edge">Colors reflect ownership:</text></g><g transform="translate(236.02745098039236 473.2365196078431) rotate(0 92.0999984741211 10)"><text x="0" y="0" font-family="Virgil, Segoe UI Emoji" font-size="16px" fill="#1971c2" text-anchor="start" style="white-space: pre;" direction="ltr" dominant-baseline="text-before-edge">App Catalog Maintainer</text></g><g transform="translate(438.02745098039236 474.2365196078431) rotate(0 83.29166412353516 10)"><text x="0" y="0" font-family="Virgil, Segoe UI Emoji" font-size="16px" fill="#f08c00" text-anchor="start" style="white-space: pre;" direction="ltr" dominant-baseline="text-before-edge">K8s Cluster Provider</text></g><g transform="translate(623.0274509803924 472.2365196078431) rotate(0 69.69166564941406 10)"><text x="0" y="0" font-family="Virgil, Segoe UI Emoji" font-size="16px" fill="#2f9e44" text-anchor="start" style="white-space: pre;" direction="ltr" dominant-baseline="text-before-edge">K8s Cluster User</text></g><g transform="translate(41.966659545898665 27.84375) rotate(0 142.03334045410156 10)"><text x="142.03334045410156" y="0" font-family="Virgil, Segoe UI Emoji" font-size="16px" fill="#1971c2" text-anchor="middle" style="white-space: pre;" direction="ltr" dominant-baseline="text-before-edge">App Catalog Maintainer Namespace </text></g><g stroke-linecap="round" transform="translate(28.500000000000227 61.84375) rotate(0 153.5 178.8274509803922)"><path d="M32 0 C121.88 1.8, 212.07 1.56, 275 0 M275 0 C296.7 -0.58, 308.72 10.52, 307 32 M307 32 C307.83 127.77, 308.1 224.87, 307 325.65 M307 325.65 C307.82 347.99, 294.77 358.81, 275 357.65 M275 357.65 C205.19 357.16, 136.43 358.44, 32 357.65 M32 357.65 C10.73 359.65, 1.51 347.77, 0 325.65 M0 325.65 C1.79 228.52, 0.3 127.86, 0 32 M0 32 C-1.89 11.63, 12.15 1.27, 32 0" stroke="#1971c2" stroke-width="2.5" fill="none" stroke-dasharray="1.5 8"></path></g><g stroke-linecap="round" transform="translate(686.5000000000002 63.84375) rotate(0 153.5 175.5)"><path d="M32 0 C127.12 0.44, 223.72 -0.86, 275 0 M275 0 C294.41 -1.28, 307.47 11.5, 307 32 M307 32 C307.48 145.68, 308.02 256.47, 307 319 M307 319 C306.73 342.19, 294.69 352.68, 275 351 M275 351 C210.57 349.22, 150.59 350.73, 32 351 M32 351 C10.02 351.32, -1.54 340.35, 0 319 M0 319 C-1.56 230.47, -1.92 139.6, 0 32 M0 32 C-1.3 12.29, 11.86 -1.44, 32 0" stroke="#2f9e44" stroke-width="2.5" fill="none" stroke-dasharray="1.5 8"></path></g><g stroke-linecap="round" transform="translate(384.0000000000001 277.84375) rotate(0 50 27.5)"><path d="M13.75 0 C30.53 1.85, 46.79 1.39, 86.25 0 M13.75 0 C35.49 0.03, 56.65 -0.44, 86.25 0 M86.25 0 C93.89 0.27, 98.68 3.53, 100 13.75 M86.25 0 C93.19 1.24, 98.74 5.91, 100 13.75 M100 13.75 C101.96 24.17, 101.51 31.68, 100 41.25 M100 13.75 C99.67 20.78, 100.45 26.45, 100 41.25 M100 41.25 C100.27 50.69, 97.34 53.07, 86.25 55 M100 41.25 C100.54 48.72, 96.69 54.67, 86.25 55 M86.25 55 C60.26 56.67, 36.41 55, 13.75 55 M86.25 55 C61.95 55.85, 40.03 55.77, 13.75 55 M13.75 55 C2.77 56.59, -0.94 50.78, 0 41.25 M13.75 55 C4.03 54.46, 0.77 50.13, 0 41.25 M0 41.25 C1.13 33.35, -0.7 27.69, 0 13.75 M0 41.25 C-0.07 35.07, -0.47 27.38, 0 13.75 M0 13.75 C-1.91 3.45, 6.21 1.32, 13.75 0 M0 13.75 C-0.67 6.23, 6.25 1.67, 13.75 0" stroke="#f08c00" stroke-width="2" fill="none"></path></g><g transform="translate(402.39166641235363 295.34375) rotate(0 31.608333587646484 10)"><text x="31.608333587646484" y="0" font-family="Virgil, Segoe UI Emoji" font-size="16px" fill="#f08c00" text-anchor="middle" style="white-space: pre;" direction="ltr" dominant-baseline="text-before-edge">Registry</text></g><g stroke-linecap="round" transform="translate(535.0000000000001 278.84375) rotate(0 50 27.5)"><path d="M13.75 0 C41.89 -1.68, 66.6 0.64, 86.25 0 M13.75 0 C41.36 -0.25, 66.59 -0.46, 86.25 0 M86.25 0 C95.85 -1.25, 101.34 2.66, 100 13.75 M86.25 0 C94.52 -0.46, 100.07 3.23, 100 13.75 M100 13.75 C98.16 22.58, 101.74 32.68, 100 41.25 M100 13.75 C99.1 22.7, 99.32 31.01, 100 41.25 M100 41.25 C101.87 50.7, 94.48 53.36, 86.25 55 M100 41.25 C98.79 51.28, 94.35 56.01, 86.25 55 M86.25 55 C62.27 54.4, 35.7 55.82, 13.75 55 M86.25 55 C59.53 53.83, 33.87 54.98, 13.75 55 M13.75 55 C3.58 56.58, 1.85 52.06, 0 41.25 M13.75 55 C4.14 52.84, 0.51 49.67, 0 41.25 M0 41.25 C0.73 31.93, 0.3 21.28, 0 13.75 M0 41.25 C-0.13 30.68, 1.12 21.58, 0 13.75 M0 13.75 C0.99 4.24, 4.28 1.63, 13.75 0 M0 13.75 C1.24 5.82, 3.29 -2.02, 13.75 0" stroke="#f08c00" stroke-width="2" fill="none"></path></g><g transform="translate(553.3916664123536 286.34375) rotate(0 31.608333587646484 20)"><text x="31.608333587646484" y="0" font-family="Virgil, Segoe UI Emoji" font-size="16px" fill="#f08c00" text-anchor="middle" style="white-space: pre;" direction="ltr" dominant-baseline="text-before-edge">Registry</text><text x="31.608333587646484" y="20" font-family="Virgil, Segoe UI Emoji" font-size="16px" fill="#f08c00" text-anchor="middle" style="white-space: pre;" direction="ltr" dominant-baseline="text-before-edge">Binding</text></g><g stroke-linecap="round"><g transform="translate(525.0000000000001 302.1645039279982) rotate(0 -14 0.02601686624723243)"><path d="M0 0 C-4.67 0.01, -23.33 0.04, -28 0.05 M0 0 C-4.67 0.01, -23.33 0.04, -28 0.05" stroke="#f08c00" stroke-width="2" fill="none"></path></g><g transform="translate(525.0000000000001 302.1645039279982) rotate(0 -14 0.02601686624723243)"><path d="M-14.85 -4.76 C-19.33 -3.12, -23.81 -1.48, -28 0.05 M-14.85 -4.76 C-19.08 -3.21, -23.31 -1.66, -28 0.05" stroke="#f08c00" stroke-width="2" fill="none"></path></g><g transform="translate(525.0000000000001 302.1645039279982) rotate(0 -14 0.02601686624723243)"><path d="M-14.84 4.82 C-19.32 3.19, -23.8 1.57, -28 0.05 M-14.84 4.82 C-19.07 3.28, -23.3 1.75, -28 0.05" stroke="#f08c00" stroke-width="2" fill="none"></path></g></g><mask></mask><g stroke-linecap="round"><g transform="translate(645.2187500000001 300.2451978069614) rotate(0 36.5 -0.522808534169485)"><path d="M0 0 C12.17 -0.17, 60.83 -0.87, 73 -1.05 M0 0 C12.17 -0.17, 60.83 -0.87, 73 -1.05" stroke="#f08c00" stroke-width="2" fill="none"></path></g><g transform="translate(645.2187500000001 300.2451978069614) rotate(0 36.5 -0.522808534169485)"><path d="M44.96 9.62 C51.96 6.95, 58.97 4.29, 73 -1.05 M44.96 9.62 C55.75 5.51, 66.54 1.41, 73 -1.05" stroke="#f08c00" stroke-width="2" fill="none"></path></g><g transform="translate(645.2187500000001 300.2451978069614) rotate(0 36.5 -0.522808534169485)"><path d="M44.67 -10.9 C51.74 -8.44, 58.82 -5.98, 73 -1.05 M44.67 -10.9 C55.57 -7.11, 66.47 -3.32, 73 -1.05" stroke="#f08c00" stroke-width="2" fill="none"></path></g></g><mask></mask><g stroke-linecap="round"><g transform="translate(721.0000000000001 322.61825980392155) rotate(0 -133 36)"><path d="M0 0 C-23.33 12, -95.67 68.83, -140 72 C-184.33 75.17, -245 27.83, -266 19 M0 0 C-23.33 12, -95.67 68.83, -140 72 C-184.33 75.17, -245 27.83, -266 19" stroke="#f08c00" stroke-width="2" fill="none"></path></g><g transform="translate(721.0000000000001 322.61825980392155) rotate(0 -133 36)"><path d="M-236.42 23.99 C-248.11 22.02, -259.81 20.04, -266 19 M-236.42 23.99 C-245.46 22.46, -254.5 20.94, -266 19" stroke="#f08c00" stroke-width="2" fill="none"></path></g><g transform="translate(721.0000000000001 322.61825980392155) rotate(0 -133 36)"><path d="M-246.54 41.84 C-254.24 32.81, -261.93 23.78, -266 19 M-246.54 41.84 C-252.49 34.86, -258.44 27.88, -266 19" stroke="#f08c00" stroke-width="2" fill="none"></path></g></g><mask></mask><g stroke-linecap="round"><g transform="translate(638.0000000000001 126.61825980392155) rotate(0 43.5 70.5)"><path d="M0 0 C14.5 23.5, 72.5 117.5, 87 141" stroke="#f08c00" stroke-width="1.5" fill="none" stroke-dasharray="8 9"></path></g></g><mask></mask></svg>